<svg width="39" height="39" viewBox="0 0 39 39" fill="none" xmlns="http://www.w3.org/2000/svg">
<path d="M19.5 0C20.1746 0 20.8215 0.262872 21.2985 0.730788C21.7755 1.1987 22.0435 1.83333 22.0435 2.49507V16.6338H36.4565C37.1311 16.6338 37.778 16.8966 38.255 17.3646C38.732 17.8325 39 18.4671 39 19.1288C39 19.7906 38.732 20.4252 38.255 20.8931C37.778 21.361 37.1311 21.6239 36.4565 21.6239H22.0435V35.7626C22.0435 36.4244 21.7755 37.059 21.2985 37.5269C20.8215 37.9948 20.1746 38.2577 19.5 38.2577C18.8254 38.2577 18.1785 37.9948 17.7015 37.5269C17.2245 37.059 16.9565 36.4244 16.9565 35.7626V21.6239H2.54348C1.86891 21.6239 1.22196 21.361 0.744967 20.8931C0.267973 20.4252 0 19.7906 0 19.1288C0 18.4671 0.267973 17.8325 0.744967 17.3646C1.22196 16.8966 1.86891 16.6338 2.54348 16.6338H16.9565V2.49507C16.9565 1.83333 17.2245 1.1987 17.7015 0.730788C18.1785 0.262872 18.8254 0 19.5 0Z" fill="white"/>
</svg>
