<svg width="34" height="32" viewBox="0 0 34 32" fill="none" xmlns="http://www.w3.org/2000/svg">
<mask id="path-1-inside-1_2_715" fill="white">
<path d="M33.2837 27.5582C33.7397 27.9793 33.996 28.5503 33.996 29.1458C33.996 29.7412 33.7397 30.3123 33.2837 30.7333C32.8276 31.1544 32.209 31.3909 31.5641 31.3909C30.9191 31.3909 30.3005 31.1544 29.8445 30.7333L17 18.8715L4.1515 30.7296C3.69543 31.1506 3.07687 31.3872 2.43189 31.3872C1.78691 31.3872 1.16835 31.1506 0.712285 30.7296C0.256217 30.3086 6.79594e-09 29.7375 0 29.142C-6.79595e-09 28.5466 0.256217 27.9755 0.712285 27.5545L13.5608 15.6964L0.71633 3.83456C0.260262 3.41352 0.00404622 2.84246 0.00404623 2.24701C0.00404623 1.65156 0.260262 1.0805 0.71633 0.659454C1.1724 0.238409 1.79096 0.0018674 2.43594 0.0018674C3.08092 0.00186739 3.69948 0.238409 4.15555 0.659454L17 12.5213L29.8485 0.657586C30.3046 0.236541 30.9231 -9.92017e-09 31.5681 0C32.2131 9.92017e-09 32.8316 0.23654 33.2877 0.657586C33.7438 1.07863 34 1.64969 34 2.24514C34 2.84059 33.7438 3.41165 33.2877 3.8327L20.4392 15.6964L33.2837 27.5582Z"/>
</mask>
<path d="M33.2837 27.5582C33.7397 27.9793 33.996 28.5503 33.996 29.1458C33.996 29.7412 33.7397 30.3123 33.2837 30.7333C32.8276 31.1544 32.209 31.3909 31.5641 31.3909C30.9191 31.3909 30.3005 31.1544 29.8445 30.7333L17 18.8715L4.1515 30.7296C3.69543 31.1506 3.07687 31.3872 2.43189 31.3872C1.78691 31.3872 1.16835 31.1506 0.712285 30.7296C0.256217 30.3086 6.79594e-09 29.7375 0 29.142C-6.79595e-09 28.5466 0.256217 27.9755 0.712285 27.5545L13.5608 15.6964L0.71633 3.83456C0.260262 3.41352 0.00404622 2.84246 0.00404623 2.24701C0.00404623 1.65156 0.260262 1.0805 0.71633 0.659454C1.1724 0.238409 1.79096 0.0018674 2.43594 0.0018674C3.08092 0.00186739 3.69948 0.238409 4.15555 0.659454L17 12.5213L29.8485 0.657586C30.3046 0.236541 30.9231 -9.92017e-09 31.5681 0C32.2131 9.92017e-09 32.8316 0.23654 33.2877 0.657586C33.7438 1.07863 34 1.64969 34 2.24514C34 2.84059 33.7438 3.41165 33.2877 3.8327L20.4392 15.6964L33.2837 27.5582Z" fill="black"/>
<path d="M33.2837 27.5582L28.5345 32.7008L28.5353 32.7015L33.2837 27.5582ZM33.996 29.1458L26.996 29.1458L33.996 29.1458ZM31.5641 31.3909L31.5641 24.3909L31.5641 31.3909ZM29.8445 30.7333L25.0953 35.8759L25.0961 35.8766L29.8445 30.7333ZM17 18.8715L21.7491 13.729L17.0015 9.34453L12.2525 13.7275L17 18.8715ZM4.1515 30.7296L-0.596017 25.5856L-0.596825 25.5863L4.1515 30.7296ZM2.43189 31.3872L2.43189 38.3872L2.43189 31.3872ZM0 29.142L7 29.142L0 29.142ZM0.712285 27.5545L-4.03523 22.4105L-4.03604 22.4112L0.712285 27.5545ZM13.5608 15.6964L18.3083 20.8404L23.8802 15.698L18.3099 10.5539L13.5608 15.6964ZM0.71633 3.83456L5.46546 -1.30798L5.46465 -1.30873L0.71633 3.83456ZM0.00404623 2.24701L-6.99595 2.24701L0.00404623 2.24701ZM2.43594 0.0018674L2.43594 7.00187L2.43594 0.0018674ZM4.15555 0.659454L8.90468 -4.48309L8.90387 -4.48384L4.15555 0.659454ZM17 12.5213L12.2509 17.6638L16.9996 22.0493L21.7487 17.6642L17 12.5213ZM29.8485 0.657586L25.1002 -4.4857L25.0998 -4.48533L29.8485 0.657586ZM33.2877 3.8327L28.5394 -1.31059L28.539 -1.31022L33.2877 3.8327ZM20.4392 15.6964L15.6905 10.5535L10.1211 15.696L15.6901 20.8389L20.4392 15.6964ZM28.5353 32.7015C27.6248 31.8609 26.996 30.5955 26.996 29.1458L40.996 29.1458C40.996 26.5051 39.8546 24.0976 38.032 22.4149L28.5353 32.7015ZM26.996 29.1458C26.996 27.696 27.6248 26.4306 28.5353 25.59L38.032 35.8766C39.8546 34.1939 40.996 31.7864 40.996 29.1458L26.996 29.1458ZM28.5353 25.59C29.427 24.7668 30.525 24.3909 31.5641 24.3909L31.5641 38.3909C33.8931 38.3909 36.2282 37.5419 38.032 35.8766L28.5353 25.59ZM31.5641 24.3909C32.6031 24.3909 33.7011 24.7668 34.5928 25.59L25.0961 35.8766C26.9 37.5419 29.235 38.3909 31.5641 38.3909L31.5641 24.3909ZM34.5936 25.5908L21.7491 13.729L12.2509 24.014L25.0953 35.8759L34.5936 25.5908ZM12.2525 13.7275L-0.596017 25.5856L8.89901 35.8736L21.7475 24.0155L12.2525 13.7275ZM-0.596825 25.5863C0.294886 24.7631 1.39283 24.3872 2.43189 24.3872L2.43189 38.3872C4.76091 38.3872 7.09598 37.5382 8.89982 35.8729L-0.596825 25.5863ZM2.43189 24.3872C3.47095 24.3872 4.5689 24.7631 5.46061 25.5863L-4.03604 35.8729C-2.23219 37.5382 0.102879 38.3872 2.43189 38.3872L2.43189 24.3872ZM5.46061 25.5863C6.37112 26.4269 7 27.6923 7 29.142L-7 29.142C-7 31.7827 -5.85869 34.1902 -4.03604 35.8729L5.46061 25.5863ZM7 29.142C7 30.5918 6.37112 31.8572 5.46061 32.6978L-4.03604 22.4112C-5.85869 24.0939 -7 26.5014 -7 29.142L7 29.142ZM5.4598 32.6985L18.3083 20.8404L8.81327 10.5524L-4.03523 22.4105L5.4598 32.6985ZM18.3099 10.5539L5.46546 -1.30798L-4.0328 8.97711L8.81165 20.8389L18.3099 10.5539ZM5.46465 -1.30873C6.37517 -0.468133 7.00405 0.797268 7.00405 2.24701L-6.99595 2.24701C-6.99595 4.88765 -5.85464 7.29517 -4.03199 8.97785L5.46465 -1.30873ZM7.00405 2.24701C7.00405 3.69675 6.37517 4.96215 5.46465 5.80274L-4.03199 -4.48384C-5.85465 -2.80115 -6.99595 -0.393627 -6.99595 2.24701L7.00405 2.24701ZM5.46465 5.80274C4.57295 6.62598 3.475 7.00187 2.43594 7.00187L2.43594 -6.99813C0.106919 -6.99813 -2.22815 -6.14916 -4.03199 -4.48384L5.46465 5.80274ZM2.43594 7.00187C1.39688 7.00187 0.298932 6.62598 -0.592778 5.80274L8.90387 -4.48384C7.10002 -6.14916 4.76495 -6.99813 2.43594 -6.99813L2.43594 7.00187ZM-0.593585 5.802L12.2509 17.6638L21.7491 7.37874L8.90468 -4.48309L-0.593585 5.802ZM21.7487 17.6642L34.5972 5.8005L25.0998 -4.48533L12.2513 7.37837L21.7487 17.6642ZM34.5968 5.80088C33.7051 6.62411 32.6072 7 31.5681 7L31.5681 -7C29.2391 -7 26.904 -6.15103 25.1002 -4.4857L34.5968 5.80088ZM31.5681 7C30.529 7 29.4311 6.62411 28.5394 5.80088L38.036 -4.4857C36.2322 -6.15103 33.8971 -7 31.5681 -7L31.5681 7ZM28.5394 5.80088C27.6289 4.96028 27 3.69488 27 2.24514L41 2.24514C41 -0.395495 39.8587 -2.80302 38.036 -4.4857L28.5394 5.80088ZM27 2.24514C27 0.795404 27.6289 -0.469996 28.5394 -1.31059L38.036 8.97598C39.8587 7.2933 41 4.88577 41 2.24514L27 2.24514ZM28.539 -1.31022L15.6905 10.5535L25.1879 20.8393L38.0364 8.97561L28.539 -1.31022ZM15.6901 20.8389L28.5345 32.7008L38.0328 22.4157L25.1883 10.5538L15.6901 20.8389Z" fill="white" mask="url(#path-1-inside-1_2_715)"/>
</svg>
