<svg width="47" height="47" viewBox="0 0 47 47" fill="none" xmlns="http://www.w3.org/2000/svg">
<path d="M6.77778 23.0908H2L23.5 2L45 23.0908H40.2222M6.77778 23.0908V39.4947C6.77778 40.7377 7.28115 41.9299 8.17716 42.8088C9.07316 43.6878 10.2884 44.1816 11.5556 44.1816H35.4444C36.7116 44.1816 37.9268 43.6878 38.8228 42.8088C39.7188 41.9299 40.2222 40.7377 40.2222 39.4947V23.0908" stroke="white" stroke-width="4" stroke-linecap="round" stroke-linejoin="round"/>
<path d="M16.3334 44.1819V30.1214C16.3334 28.8784 16.8367 27.6863 17.7328 26.8073C18.6288 25.9284 19.844 25.4346 21.1112 25.4346H25.8889C27.1561 25.4346 28.3713 25.9284 29.2673 26.8073C30.1633 27.6863 30.6667 28.8784 30.6667 30.1214V44.1819" stroke="white" stroke-width="4" stroke-linecap="round" stroke-linejoin="round"/>
</svg>
