<svg width="51" height="51" viewBox="0 0 51 51" fill="none" xmlns="http://www.w3.org/2000/svg">
<path d="M20.23 6.25366C20.8023 6.25363 21.3687 6.36698 21.8953 6.58691C22.4218 6.80685 22.8976 7.12884 23.2942 7.53358L23.5492 7.81916L26.52 11.465H42.5C43.5722 11.4647 44.605 11.862 45.3912 12.5771C46.1774 13.2923 46.659 14.2726 46.7394 15.3215L46.75 15.6342V39.6065C46.7503 40.6583 46.3454 41.6714 45.6163 42.4427C44.8873 43.2139 43.888 43.6863 42.8187 43.7652L42.5 43.7756H8.5C7.42778 43.776 6.39505 43.3787 5.60884 42.6635C4.82263 41.9483 4.34104 40.9681 4.26063 39.9192L4.25 39.6065V10.4228C4.24966 9.37095 4.65461 8.35788 5.38368 7.58663C6.11275 6.81539 7.11205 6.34297 8.18125 6.26409L8.5 6.25366H20.23ZM20.23 10.4228H8.5V39.6065H42.5V15.6342H26.52C25.9477 15.6342 25.3813 15.5208 24.8547 15.3009C24.3282 15.081 23.8524 14.759 23.4558 14.3542L23.2008 14.0687L20.23 10.4228ZM22.4953 21.2041L25.5 24.1516L28.5047 21.2041C28.702 21.0104 28.9363 20.8567 29.1941 20.7519C29.452 20.647 29.7283 20.593 30.0074 20.5929C30.2866 20.5928 30.563 20.6466 30.8209 20.7513C31.0788 20.856 31.3131 21.0095 31.5106 21.203C31.708 21.3966 31.8646 21.6264 31.9715 21.8793C32.0784 22.1322 32.1335 22.4033 32.1336 22.6771C32.1337 22.9509 32.0788 23.2221 31.9721 23.4751C31.8654 23.7281 31.7089 23.958 31.5116 24.1516L28.5047 27.0992L31.5116 30.0468C31.7089 30.2404 31.8654 30.4703 31.9721 30.7233C32.0788 30.9763 32.1337 31.2475 32.1336 31.5213C32.1335 31.7951 32.0784 32.0662 31.9715 32.3191C31.8646 32.572 31.708 32.8018 31.5106 32.9954C31.3131 33.1889 31.0788 33.3424 30.8209 33.4471C30.563 33.5518 30.2866 33.6056 30.0074 33.6055C29.7283 33.6054 29.452 33.5514 29.1941 33.4465C28.9363 33.3417 28.702 33.188 28.5047 32.9943L25.5 30.0468L22.4953 32.9943C22.2992 33.1934 22.0647 33.3522 21.8055 33.4615C21.5462 33.5707 21.2674 33.6282 20.9852 33.6306C20.7031 33.633 20.4233 33.5803 20.1621 33.4755C19.9009 33.3707 19.6637 33.2159 19.4642 33.0202C19.2646 32.8244 19.1069 32.5917 19 32.3355C18.8932 32.0793 18.8394 31.8048 18.8418 31.528C18.8443 31.2513 18.9029 30.9777 19.0143 30.7234C19.1257 30.4691 19.2875 30.239 19.4905 30.0468L22.4953 27.0992L19.4905 24.1516C19.2875 23.9593 19.1257 23.7293 19.0143 23.475C18.9029 23.2207 18.8443 22.9471 18.8418 22.6704C18.8394 22.3936 18.8932 22.1191 19 21.8629C19.1069 21.6067 19.2646 21.374 19.4642 21.1782C19.6637 20.9825 19.9009 20.8277 20.1621 20.7229C20.4233 20.6181 20.7031 20.5654 20.9852 20.5678C21.2674 20.5702 21.5462 20.6277 21.8055 20.7369C22.0647 20.8462 22.2992 21.005 22.4953 21.2041Z" fill="white"/>
</svg>
