<svg width="50" height="50" viewBox="0 0 50 50" fill="none" xmlns="http://www.w3.org/2000/svg">
<path d="M0 10C0 4.47715 4.47715 0 10 0H40C45.5228 0 50 4.47715 50 10V40C50 45.5228 45.5228 50 40 50H10C4.47715 50 0 45.5228 0 40V10Z" fill="#7990A3"/>
<path d="M22.375 10.9375C22.7958 10.9375 23.2123 11.0224 23.5995 11.1873C23.9866 11.3521 24.3365 11.5935 24.6281 11.8969L24.8156 12.1109L27 14.8438H38.75C39.5384 14.8435 40.2978 15.1413 40.8759 15.6773C41.454 16.2134 41.8081 16.9482 41.8672 17.7344L41.875 17.9688V35.9375C41.8752 36.7259 41.5775 37.4853 41.0414 38.0634C40.5053 38.6415 39.7706 38.9956 38.9844 39.0547L38.75 39.0625H13.75C12.9616 39.0627 12.2022 38.765 11.6241 38.2289C11.046 37.6928 10.6919 36.9581 10.6328 36.1719L10.625 35.9375V14.0625C10.6248 13.2741 10.9225 12.5147 11.4586 11.9366C11.9947 11.3585 12.7294 11.0044 13.5156 10.9453L13.75 10.9375H22.375ZM22.375 14.0625H13.75V35.9375H38.75V17.9688H27C26.5792 17.9688 26.1627 17.8838 25.7755 17.719C25.3884 17.5541 25.0385 17.3127 24.7469 17.0094L24.5594 16.7953L22.375 14.0625ZM24.0406 22.1437L26.25 24.3531L28.4594 22.1437C28.6044 21.9986 28.7767 21.8834 28.9663 21.8048C29.1559 21.7262 29.3591 21.6857 29.5643 21.6856C29.7695 21.6855 29.9728 21.7259 30.1624 21.8044C30.352 21.8828 30.5244 21.9979 30.6695 22.143C30.8147 22.288 30.9299 22.4603 31.0085 22.6499C31.0871 22.8394 31.1276 23.0427 31.1277 23.2479C31.1277 23.4531 31.0874 23.6564 31.0089 23.846C30.9304 24.0356 30.8154 24.208 30.6703 24.3531L28.4594 26.5625L30.6703 28.7719C30.8154 28.917 30.9304 29.0894 31.0089 29.279C31.0874 29.4686 31.1277 29.6719 31.1277 29.8771C31.1276 30.0823 31.0871 30.2856 31.0085 30.4751C30.9299 30.6647 30.8147 30.837 30.6695 30.982C30.5244 31.1271 30.352 31.2422 30.1624 31.3206C29.9728 31.3991 29.7695 31.4395 29.5643 31.4394C29.3591 31.4393 29.1559 31.3988 28.9663 31.3202C28.7767 31.2416 28.6044 31.1264 28.4594 30.9813L26.25 28.7719L24.0406 30.9813C23.8965 31.1305 23.7241 31.2495 23.5334 31.3314C23.3428 31.4133 23.1378 31.4564 22.9303 31.4582C22.7228 31.46 22.5171 31.4205 22.3251 31.3419C22.133 31.2633 21.9586 31.1473 21.8119 31.0006C21.6652 30.8539 21.5492 30.6795 21.4706 30.4874C21.392 30.2954 21.3525 30.0897 21.3543 29.8822C21.3561 29.6747 21.3992 29.4697 21.4811 29.2791C21.563 29.0884 21.682 28.916 21.8312 28.7719L24.0406 26.5625L21.8312 24.3531C21.682 24.209 21.563 24.0366 21.4811 23.8459C21.3992 23.6553 21.3561 23.4503 21.3543 23.2428C21.3525 23.0353 21.392 22.8296 21.4706 22.6376C21.5492 22.4455 21.6652 22.2711 21.8119 22.1244C21.9586 21.9777 22.133 21.8617 22.3251 21.7831C22.5171 21.7045 22.7228 21.665 22.9303 21.6668C23.1378 21.6686 23.3428 21.7117 23.5334 21.7936C23.7241 21.8755 23.8965 21.9945 24.0406 22.1437Z" fill="white"/>
</svg>
