<svg width="35" height="35" viewBox="0 0 35 35" fill="none" xmlns="http://www.w3.org/2000/svg">
<rect width="35" height="35" rx="10" fill="#768DC7"/>
<path d="M13 11.1429C13 10.8393 13.1318 10.5491 13.3662 10.3348C13.8545 9.88839 14.6455 9.88839 15.1338 10.3348L22.6338 17.192C22.8682 17.4063 23 17.6964 23 18C23 18.3036 22.8682 18.5938 22.6338 18.808L15.1338 25.6652C14.6455 26.1116 13.8545 26.1116 13.3662 25.6652C13.1318 25.4509 13 25.1607 13 24.8571C13 24.5536 13.1318 24.2634 13.3662 24.0491L19.9824 18L13.3662 11.9509C13.1318 11.7366 13 11.4464 13 11.1429Z" fill="white" stroke="white"/>
</svg>
