<svg width="35" height="35" viewBox="0 0 35 35" fill="none" xmlns="http://www.w3.org/2000/svg">
<path d="M0 10C0 4.47715 4.47715 0 10 0H25C30.5228 0 35 4.47715 35 10V25C35 30.5228 30.5228 35 25 35H10C4.47715 35 0 30.5228 0 25V10Z" fill="#768DC7"/>
<path d="M26.6001 17.8495H14.9129M10.7877 17.8495H9.1001M10.7877 17.8495C10.7877 17.2738 11.0049 16.7217 11.3917 16.3146C11.7784 15.9075 12.3029 15.6788 12.8498 15.6788C13.3967 15.6788 13.9213 15.9075 14.308 16.3146C14.6947 16.7217 14.912 17.2738 14.912 17.8495C14.912 18.4252 14.6947 18.9773 14.308 19.3844C13.9213 19.7915 13.3967 20.0202 12.8498 20.0202C12.3029 20.0202 11.7784 19.7915 11.3917 19.3844C11.0049 18.9773 10.7877 18.4252 10.7877 17.8495ZM26.6001 24.4283H21.1628M21.1628 24.4283C21.1628 25.0041 20.945 25.5569 20.5582 25.9641C20.1714 26.3713 19.6467 26.6 19.0997 26.6C18.5528 26.6 18.0283 26.3703 17.6415 25.9632C17.2548 25.5561 17.0375 25.004 17.0375 24.4283M21.1628 24.4283C21.1628 23.8525 20.945 23.3007 20.5582 22.8935C20.1714 22.4864 19.6467 22.2576 19.0997 22.2576C18.5528 22.2576 18.0283 22.4863 17.6415 22.8934C17.2548 23.3005 17.0375 23.8526 17.0375 24.4283M17.0375 24.4283H9.1001M26.6001 11.2707H23.6629M19.5377 11.2707H9.1001M19.5377 11.2707C19.5377 10.695 19.7549 10.1429 20.1417 9.73579C20.5284 9.3287 21.0529 9.10001 21.5998 9.10001C21.8706 9.10001 22.1388 9.15615 22.389 9.26524C22.6392 9.37433 22.8665 9.53422 23.058 9.73579C23.2495 9.93736 23.4014 10.1767 23.505 10.44C23.6087 10.7034 23.662 10.9856 23.662 11.2707C23.662 11.5558 23.6087 11.838 23.505 12.1014C23.4014 12.3648 23.2495 12.604 23.058 12.8056C22.8665 13.0072 22.6392 13.1671 22.389 13.2762C22.1388 13.3853 21.8706 13.4414 21.5998 13.4414C21.0529 13.4414 20.5284 13.2127 20.1417 12.8056C19.7549 12.3985 19.5377 11.8464 19.5377 11.2707Z" stroke="white" stroke-width="1.5" stroke-miterlimit="10" stroke-linecap="round"/>
</svg>
