<svg width="43" height="42" viewBox="0 0 43 42" fill="none" xmlns="http://www.w3.org/2000/svg">
<path d="M41 20.6373H14.9543M5.76086 20.6373H2M5.76086 20.6373C5.76086 19.411 6.24505 18.2349 7.10691 17.3678C7.96876 16.5007 9.13769 16.0135 10.3565 16.0135C11.5754 16.0135 12.7443 16.5007 13.6062 17.3678C14.468 18.2349 14.9522 19.411 14.9522 20.6373C14.9522 21.8636 14.468 23.0397 13.6062 23.9068C12.7443 24.7739 11.5754 25.2611 10.3565 25.2611C9.13769 25.2611 7.96876 24.7739 7.10691 23.9068C6.24505 23.0397 5.76086 21.8636 5.76086 20.6373ZM41 34.6508H28.8826M28.8826 34.6508C28.8826 35.8774 28.3972 37.0548 27.5352 37.9221C26.6731 38.7895 25.5039 39.2767 24.2848 39.2767C23.066 39.2767 21.897 38.7875 21.0352 37.9203C20.1733 37.0532 19.6891 35.8771 19.6891 34.6508M28.8826 34.6508C28.8826 33.4242 28.3972 32.2489 27.5352 31.3816C26.6731 30.5143 25.5039 30.027 24.2848 30.027C23.066 30.027 21.897 30.5142 21.0352 31.3813C20.1733 32.2484 19.6891 33.4245 19.6891 34.6508M19.6891 34.6508H2M41 6.6238H34.4543M25.2609 6.6238H2M25.2609 6.6238C25.2609 5.39749 25.7451 4.22141 26.6069 3.35428C27.4688 2.48715 28.6377 2 29.8565 2C30.4601 2 31.0577 2.1196 31.6152 2.35197C32.1728 2.58433 32.6794 2.92492 33.1062 3.35428C33.5329 3.78364 33.8714 4.29336 34.1024 4.85435C34.3333 5.41533 34.4522 6.01659 34.4522 6.6238C34.4522 7.231 34.3333 7.83226 34.1024 8.39325C33.8714 8.95423 33.5329 9.46396 33.1062 9.89332C32.6794 10.3227 32.1728 10.6633 31.6152 10.8956C31.0577 11.128 30.4601 11.2476 29.8565 11.2476C28.6377 11.2476 27.4688 10.7604 26.6069 9.89332C25.7451 9.02619 25.2609 7.85011 25.2609 6.6238Z" stroke="white" stroke-width="3.5" stroke-miterlimit="10" stroke-linecap="round"/>
</svg>
