<svg width="50" height="50" viewBox="0 0 50 50" fill="none" xmlns="http://www.w3.org/2000/svg">
<circle cx="25" cy="25" r="25" fill="#2B2B76"/>
<path d="M18.2 13C15.327 13 13 15.2872 13 18.1111C13 20.935 15.327 23.2222 18.2 23.2222C21.073 23.2222 23.4 20.935 23.4 18.1111C23.4 15.2872 21.073 13 18.2 13ZM18.2 20.6667C16.77 20.6667 15.6 19.5167 15.6 18.1111C15.6 16.7056 16.77 15.5556 18.2 15.5556C19.63 15.5556 20.8 16.7056 20.8 18.1111C20.8 19.5167 19.63 20.6667 18.2 20.6667ZM18.2 25.7778C15.327 25.7778 13 28.065 13 30.8889C13 33.7128 15.327 36 18.2 36C21.073 36 23.4 33.7128 23.4 30.8889C23.4 28.065 21.073 25.7778 18.2 25.7778ZM26 15.5556H39V18.1111H26V15.5556ZM26 33.4444V30.8889H39V33.4444H26ZM26 23.2222H39V25.7778H26V23.2222Z" fill="white"/>
</svg>
