<svg width="35" height="35" viewBox="0 0 35 35" fill="none" xmlns="http://www.w3.org/2000/svg">
<rect width="35" height="35" rx="10" fill="#768DC7"/>
<path d="M19.625 10.7C19.625 10.1049 19.625 9.80742 19.7408 9.58014C19.8427 9.38022 20.0052 9.21767 20.2051 9.1158C20.4324 9 20.7299 9 21.325 9H24.3C24.8951 9 25.1926 9 25.4199 9.1158C25.6198 9.21767 25.7823 9.38022 25.8842 9.58014C26 9.80742 26 10.1049 26 10.7V13.675C26 14.2701 26 14.5676 25.8842 14.7949C25.7823 14.9948 25.6198 15.1573 25.4199 15.2592C25.1926 15.375 24.8951 15.375 24.3 15.375H21.325C20.7299 15.375 20.4324 15.375 20.2051 15.2592C20.0052 15.1573 19.8427 14.9948 19.7408 14.7949C19.625 14.5676 19.625 14.2701 19.625 13.675V10.7Z" stroke="white" stroke-width="2" stroke-linecap="round" stroke-linejoin="round"/>
<path d="M9 10.7C9 10.1049 9 9.80742 9.1158 9.58014C9.21767 9.38022 9.38022 9.21767 9.58014 9.1158C9.80742 9 10.1049 9 10.7 9H13.675C14.2701 9 14.5676 9 14.7949 9.1158C14.9948 9.21767 15.1573 9.38022 15.2592 9.58014C15.375 9.80742 15.375 10.1049 15.375 10.7V13.675C15.375 14.2701 15.375 14.5676 15.2592 14.7949C15.1573 14.9948 14.9948 15.1573 14.7949 15.2592C14.5676 15.375 14.2701 15.375 13.675 15.375H10.7C10.1049 15.375 9.80742 15.375 9.58014 15.2592C9.38022 15.1573 9.21767 14.9948 9.1158 14.7949C9 14.5676 9 14.2701 9 13.675V10.7Z" stroke="white" stroke-width="2" stroke-linecap="round" stroke-linejoin="round"/>
<path d="M9 21.325C9 20.7299 9 20.4324 9.1158 20.2051C9.21767 20.0052 9.38022 19.8427 9.58014 19.7408C9.80742 19.625 10.1049 19.625 10.7 19.625H13.675C14.2701 19.625 14.5676 19.625 14.7949 19.7408C14.9948 19.8427 15.1573 20.0052 15.2592 20.2051C15.375 20.4324 15.375 20.7299 15.375 21.325V24.3C15.375 24.8951 15.375 25.1926 15.2592 25.4199C15.1573 25.6198 14.9948 25.7823 14.7949 25.8842C14.5676 26 14.2701 26 13.675 26H10.7C10.1049 26 9.80742 26 9.58014 25.8842C9.38022 25.7823 9.21767 25.6198 9.1158 25.4199C9 25.1926 9 24.8951 9 24.3V21.325Z" stroke="white" stroke-width="2" stroke-linecap="round" stroke-linejoin="round"/>
<path d="M19.625 21.325C19.625 20.7299 19.625 20.4324 19.7408 20.2051C19.8427 20.0052 20.0052 19.8427 20.2051 19.7408C20.4324 19.625 20.7299 19.625 21.325 19.625H24.3C24.8951 19.625 25.1926 19.625 25.4199 19.7408C25.6198 19.8427 25.7823 20.0052 25.8842 20.2051C26 20.4324 26 20.7299 26 21.325V24.3C26 24.8951 26 25.1926 25.8842 25.4199C25.7823 25.6198 25.6198 25.7823 25.4199 25.8842C25.1926 26 24.8951 26 24.3 26H21.325C20.7299 26 20.4324 26 20.2051 25.8842C20.0052 25.7823 19.8427 25.6198 19.7408 25.4199C19.625 25.1926 19.625 24.8951 19.625 24.3V21.325Z" stroke="white" stroke-width="2" stroke-linecap="round" stroke-linejoin="round"/>
</svg>
