<svg width="35" height="35" viewBox="0 0 35 35" fill="none" xmlns="http://www.w3.org/2000/svg">
<rect width="35" height="35" rx="10" fill="#768DC7"/>
<path d="M13.7222 10.5777L26 10.5785M13.7222 17.5008L26 17.5017M13.7222 24.4239L26 24.4248M9.47222 10.5769H9.48167M9.47222 17.5H9.48167M9.47222 24.4231H9.48167M9.94444 10.5769C9.94444 10.8955 9.73302 11.1538 9.47222 11.1538C9.21142 11.1538 9 10.8955 9 10.5769C9 10.2583 9.21142 10 9.47222 10C9.73302 10 9.94444 10.2583 9.94444 10.5769ZM9.94444 17.5C9.94444 17.8186 9.73302 18.0769 9.47222 18.0769C9.21142 18.0769 9 17.8186 9 17.5C9 17.1814 9.21142 16.9231 9.47222 16.9231C9.73302 16.9231 9.94444 17.1814 9.94444 17.5ZM9.94444 24.4231C9.94444 24.7417 9.73302 25 9.47222 25C9.21142 25 9 24.7417 9 24.4231C9 24.1045 9.21142 23.8462 9.47222 23.8462C9.73302 23.8462 9.94444 24.1045 9.94444 24.4231Z" stroke="white" stroke-width="3" stroke-linecap="round" stroke-linejoin="round"/>
</svg>
