<svg width="40" height="40" viewBox="0 0 40 40" fill="none" xmlns="http://www.w3.org/2000/svg">
<rect width="40" height="40" rx="10" fill="#768DC7"/>
<path d="M13.2727 30C12.6477 30 12.1129 29.7826 11.6682 29.3478C11.2235 28.913 11.0008 28.3896 11 27.7778V12.2222C11 11.6111 11.2227 11.0881 11.6682 10.6533C12.1136 10.2185 12.6485 10.0007 13.2727 10H20.0909C20.4129 10 20.683 10.1067 20.9011 10.32C21.1193 10.5333 21.228 10.797 21.2273 11.1111C21.2273 11.4259 21.1182 11.69 20.9 11.9033C20.6818 12.1167 20.4121 12.223 20.0909 12.2222H13.2727V27.7778H20.0909C20.4129 27.7778 20.683 27.8844 20.9011 28.0978C21.1193 28.3111 21.228 28.5748 21.2273 28.8889C21.2273 29.2037 21.1182 29.4678 20.9 29.6811C20.6818 29.8944 20.4121 30.0007 20.0909 30H13.2727ZM27.108 21.1111H18.9545C18.6326 21.1111 18.3629 21.0044 18.1455 20.7911C17.928 20.5778 17.8189 20.3141 17.8182 20C17.8182 19.6852 17.9273 19.4215 18.1455 19.2089C18.3636 18.9963 18.6333 18.8896 18.9545 18.8889H27.108L24.9773 16.8056C24.7689 16.6019 24.6648 16.3519 24.6648 16.0556C24.6648 15.7593 24.7689 15.5 24.9773 15.2778C25.1856 15.0556 25.4508 14.9396 25.7727 14.93C26.0947 14.9204 26.3693 15.027 26.5966 15.25L30.6591 19.2222C30.8864 19.4444 31 19.7037 31 20C31 20.2963 30.8864 20.5556 30.6591 20.7778L26.5966 24.75C26.3693 24.9722 26.0996 25.0789 25.7875 25.07C25.4754 25.0611 25.2053 24.9452 24.9773 24.7222C24.7689 24.5 24.6697 24.2363 24.6795 23.9311C24.6894 23.6259 24.7981 23.3711 25.0057 23.1667L27.108 21.1111Z" fill="white"/>
</svg>
