<svg width="100" height="100" viewBox="0 0 100 100" fill="none" xmlns="http://www.w3.org/2000/svg">
<circle cx="50" cy="50" r="50" fill="white"/>
<g clip-path="url(#clip0_2_20)">
<path d="M49.4029 35.3467L54.0732 55.7375L58.7295 35.3467H65.3683V64.6553H60.3088V57.8115L60.7967 43.803L55.7372 64.6553H52.4037L47.33 43.7805L47.818 57.8115V64.6553H42.7725V35.3467H49.3973H49.4029Z" fill="#414042"/>
<path d="M79.2664 56.669C79.2664 55.6249 78.9703 54.8145 78.3752 54.232C77.7802 53.6495 76.7395 53.0472 75.2476 52.4225C73.7557 51.8006 72.5374 51.1956 71.5898 50.6159C68.5072 48.7333 66.9674 46.1471 66.9674 42.8547C66.9674 41.2169 67.3509 39.7705 68.118 38.5182C68.8851 37.2659 69.9709 36.2894 71.3782 35.5916C72.7827 34.8937 74.362 34.5447 76.1162 34.5447C77.8704 34.5447 79.3595 34.9246 80.7132 35.6816C82.0698 36.4414 83.1217 37.5192 83.8747 38.9206C84.6249 40.322 85.0028 41.9232 85.0028 43.7242H79.2862C79.2862 42.5198 78.9901 41.5855 78.395 40.9214C77.7999 40.2573 76.999 39.9252 75.9865 39.9252C74.974 39.9252 74.1534 40.2066 73.5611 40.7695C72.966 41.3323 72.6699 42.047 72.6699 42.9138C72.6699 43.6736 72.9971 44.3602 73.6513 44.9765C74.3056 45.5928 75.4535 46.2288 77.0977 46.8872C78.7419 47.5457 80.0928 48.2521 81.1475 49.0091C83.7168 50.8523 85.0028 53.3906 85.0028 56.6267C85.0028 59.2129 84.2188 61.2446 82.6507 62.722C81.0827 64.1994 78.9308 64.9367 76.198 64.9367C74.2718 64.9367 72.5261 64.5062 70.9637 63.6479C69.4012 62.7868 68.2252 61.6105 67.4355 60.1134C66.6459 58.6163 66.251 56.8941 66.251 54.9439H72.0015C72.0015 56.5283 72.3315 57.6961 72.9886 58.4475C73.6485 59.1988 74.7174 59.5759 76.198 59.5759C77.1456 59.5759 77.893 59.3226 78.4429 58.8133C78.9929 58.3067 79.2693 57.592 79.2693 56.669H79.2664Z" fill="#414042"/>
<path d="M19.6663 64.6553H33.2176C37.5861 64.6553 41.1312 61.1377 41.1312 56.7984V44.076H35.2087V55.4674C35.2087 57.4963 33.5532 59.1425 31.5085 59.1425H19.6663V64.6553Z" fill="url(#paint0_linear_2_20)"/>
<path d="M41.1312 35.3467H27.5799C23.2114 35.3467 19.6663 38.8643 19.6663 43.2036C19.6663 46.4454 19.6663 52.628 19.6663 55.8726L25.5888 55.9148V44.5347C25.5888 44.2899 25.6142 42.9869 26.6718 41.9373C27.3402 41.2732 28.268 40.8623 29.289 40.8623H41.1312V35.3496V35.3467Z" fill="url(#paint1_linear_2_20)"/>
<path d="M18.8202 35.6281C20.3778 35.6281 21.6405 34.3682 21.6405 32.8141C21.6405 31.2599 20.3778 30 18.8202 30C17.2627 30 16 31.2599 16 32.8141C16 34.3682 17.2627 35.6281 18.8202 35.6281Z" fill="#FFD62A"/>
</g>
<defs>
<linearGradient id="paint0_linear_2_20" x1="19.6663" y1="54.3642" x2="41.1312" y2="54.3642" gradientUnits="userSpaceOnUse">
<stop stop-color="#70C8BB"/>
<stop offset="1" stop-color="#0964AE"/>
</linearGradient>
<linearGradient id="paint1_linear_2_20" x1="19.6663" y1="45.6294" x2="41.1312" y2="45.6294" gradientUnits="userSpaceOnUse">
<stop stop-color="#00A9C6"/>
<stop offset="1" stop-color="#FAF17A"/>
</linearGradient>
<clipPath id="clip0_2_20">
<rect width="69" height="34.9367" fill="white" transform="translate(16 30)"/>
</clipPath>
</defs>
</svg>
