<svg width="55" height="28" viewBox="0 0 55 28" fill="none" xmlns="http://www.w3.org/2000/svg">
<g clip-path="url(#clip0_1_45)">
<path d="M26.5892 4.25607L30.3069 20.4874L34.0133 4.25607H39.2979V27.5861H35.2705V22.1383L35.6588 10.9874L31.6314 27.5861H28.9779L24.9392 10.9695L25.3276 22.1383V27.5861H21.3113V4.25607H26.5847H26.5892Z" fill="#414042"/>
<path d="M50.361 21.2289C50.361 20.3978 50.1253 19.7527 49.6516 19.289C49.1779 18.8253 48.3495 18.346 47.1619 17.8487C45.9744 17.3536 45.0045 16.872 44.2502 16.4106C41.7965 14.912 40.5708 12.8534 40.5708 10.2325C40.5708 8.92882 40.8761 7.77743 41.4867 6.78062C42.0973 5.7838 42.9616 5.0065 44.0819 4.45097C45.1999 3.89544 46.457 3.61768 47.8534 3.61768C49.2498 3.61768 50.4351 3.92008 51.5127 4.52265C52.5925 5.12746 53.4299 5.9854 54.0293 7.10094C54.6264 8.21648 54.9272 9.49107 54.9272 10.9247H50.3767C50.3767 9.96596 50.141 9.22226 49.6673 8.69361C49.1936 8.16496 48.5561 7.90064 47.7501 7.90064C46.9442 7.90064 46.2909 8.12464 45.8195 8.57265C45.3458 9.02066 45.1101 9.58963 45.1101 10.2796C45.1101 10.8844 45.3705 11.4309 45.8913 11.9215C46.4121 12.4121 47.3258 12.9183 48.6346 13.4425C49.9434 13.9667 51.0188 14.5289 51.8584 15.1315C53.9035 16.5987 54.9272 18.6192 54.9272 21.1953C54.9272 23.2539 54.3031 24.8712 53.0549 26.0472C51.8068 27.2232 50.0939 27.8101 47.9185 27.8101C46.3852 27.8101 44.9956 27.4674 43.7519 26.7842C42.5082 26.0987 41.572 25.1624 40.9434 23.9707C40.3148 22.779 40.0005 21.4081 40.0005 19.8557H44.578C44.578 21.1169 44.8407 22.0465 45.3637 22.6446C45.8891 23.2427 46.7399 23.5429 47.9185 23.5429C48.6728 23.5429 49.2677 23.3412 49.7055 22.9358C50.1432 22.5326 50.3632 21.9636 50.3632 21.2289H50.361Z" fill="#414042"/>
<path d="M2.91846 27.5861H13.7055C17.1829 27.5861 20.0048 24.7861 20.0048 21.3319V11.2047H15.2904V20.2724C15.2904 21.8874 13.9726 23.1979 12.345 23.1979H2.91846V27.5861Z" fill="url(#paint0_linear_1_45)"/>
<path d="M20.0048 4.25607H9.21779C5.74036 4.25607 2.91846 7.05613 2.91846 10.5103C2.91846 13.0908 2.91846 18.0122 2.91846 20.5949L7.63286 20.6285V11.5698C7.63286 11.3749 7.65306 10.3378 8.49492 9.50225C9.02697 8.9736 9.76556 8.64656 10.5782 8.64656H20.0048V4.25831V4.25607Z" fill="url(#paint1_linear_1_45)"/>
<path d="M2.24495 4.48008C3.48481 4.48008 4.4899 3.47718 4.4899 2.24004C4.4899 1.0029 3.48481 0 2.24495 0C1.0051 0 0 1.0029 0 2.24004C0 3.47718 1.0051 4.48008 2.24495 4.48008Z" fill="#FFD62A"/>
</g>
<defs>
<linearGradient id="paint0_linear_1_45" x1="2.91846" y1="19.3943" x2="20.0048" y2="19.3943" gradientUnits="userSpaceOnUse">
<stop stop-color="#70C8BB"/>
<stop offset="1" stop-color="#0964AE"/>
</linearGradient>
<linearGradient id="paint1_linear_1_45" x1="2.91846" y1="12.4412" x2="20.0048" y2="12.4412" gradientUnits="userSpaceOnUse">
<stop stop-color="#00A9C6"/>
<stop offset="1" stop-color="#FAF17A"/>
</linearGradient>
<clipPath id="clip0_1_45">
<rect width="54.925" height="27.8101" fill="white"/>
</clipPath>
</defs>
</svg>
