<svg width="192" height="97" viewBox="0 0 192 97" fill="none" xmlns="http://www.w3.org/2000/svg">
<g clip-path="url(#clip0_6_738)">
<path d="M92.7415 14.8449L105.708 71.4589L118.636 14.8449H137.069V96.2187H123.021V77.2172L124.376 38.3234L110.328 96.2187H101.073L86.9863 38.2609L88.3409 77.2172V96.2187H74.3326V14.8449H92.7259H92.7415Z" fill="#414042"/>
<path d="M175.656 74.045C175.656 71.1463 174.834 68.8962 173.182 67.2788C171.53 65.6615 168.64 63.9895 164.498 62.255C160.356 60.5283 156.973 58.8485 154.342 57.239C145.784 52.012 141.508 44.8317 141.508 35.6904C141.508 31.1431 142.573 27.1272 144.703 23.6503C146.833 20.1735 149.848 17.4623 153.755 15.5247C157.654 13.587 162.039 12.6182 166.91 12.6182C171.78 12.6182 175.914 13.673 179.673 15.7747C183.439 17.8842 186.36 20.8767 188.451 24.7676C190.534 28.6585 191.583 33.1042 191.583 38.1046H175.711C175.711 34.7606 174.889 32.1666 173.237 30.3227C171.584 28.4788 169.361 27.5569 166.549 27.5569C163.738 27.5569 161.46 28.3382 159.815 29.9008C158.163 31.4635 157.341 33.448 157.341 35.8544C157.341 37.964 158.249 39.8704 160.066 41.5815C161.883 43.2925 165.07 45.0583 169.635 46.8866C174.2 48.7149 177.95 50.6759 180.879 52.7777C188.012 57.8953 191.583 64.9427 191.583 73.9278C191.583 81.1081 189.406 86.7492 185.052 90.8511C180.699 94.9529 174.724 97 167.137 97C161.789 97 156.942 95.8046 152.604 93.4216C148.266 91.0308 145.001 87.7649 142.808 83.6083C140.616 79.4517 139.519 74.6701 139.519 69.2556H155.485C155.485 73.6544 156.401 76.8968 158.226 78.9829C160.058 81.069 163.026 82.116 167.137 82.116C169.768 82.116 171.843 81.4128 173.37 79.9986C174.897 78.5923 175.664 76.6077 175.664 74.045H175.656Z" fill="#414042"/>
<path d="M10.1793 96.2187H47.8037C59.9328 96.2187 69.7754 86.4523 69.7754 74.4044V39.0813H53.3319V70.7088C53.3319 76.3421 48.7355 80.9128 43.0586 80.9128H10.1793V96.2187Z" fill="url(#paint0_linear_6_738)"/>
<path d="M69.7754 14.8449H32.151C20.022 14.8449 10.1793 24.6113 10.1793 36.6592C10.1793 45.6599 10.1793 62.8254 10.1793 71.8339L26.6229 71.9511V40.3548C26.6229 39.6751 26.6933 36.0576 29.6297 33.1433C31.4854 31.2994 34.0616 30.1587 36.8962 30.1587H69.7754V14.8528V14.8449Z" fill="url(#paint1_linear_6_738)"/>
<path d="M7.83025 15.6263C12.1548 15.6263 15.6605 12.1282 15.6605 7.81313C15.6605 3.49806 12.1548 0 7.83025 0C3.50572 0 0 3.49806 0 7.81313C0 12.1282 3.50572 15.6263 7.83025 15.6263Z" fill="#FFD62A"/>
</g>
<defs>
<linearGradient id="paint0_linear_6_738" x1="10.1793" y1="67.6461" x2="69.7754" y2="67.6461" gradientUnits="userSpaceOnUse">
<stop stop-color="#70C8BB"/>
<stop offset="1" stop-color="#0964AE"/>
</linearGradient>
<linearGradient id="paint1_linear_6_738" x1="10.1793" y1="43.3941" x2="69.7754" y2="43.3941" gradientUnits="userSpaceOnUse">
<stop stop-color="#00A9C6"/>
<stop offset="1" stop-color="#FAF17A"/>
</linearGradient>
<clipPath id="clip0_6_738">
<rect width="191.575" height="97" fill="white"/>
</clipPath>
</defs>
</svg>
