<svg width="142" height="101" viewBox="0 0 142 101" fill="none" xmlns="http://www.w3.org/2000/svg">
<g clip-path="url(#clip0_1_179)">
<path d="M108.85 98.5172C108.85 99.5754 107.99 100.426 106.935 100.426C105.881 100.426 105.02 99.5684 105.02 98.5172C105.02 97.466 105.881 96.6084 106.935 96.6084C107.99 96.6084 108.85 97.466 108.85 98.5172Z" fill="#2647C8"/>
<path d="M117.294 98.5172C117.294 99.5754 116.433 100.426 115.379 100.426C114.324 100.426 113.464 99.5684 113.464 98.5172C113.464 97.466 114.324 96.6084 115.379 96.6084C116.433 96.6084 117.294 97.466 117.294 98.5172Z" fill="#2647C8"/>
<path d="M125.737 98.5172C125.737 99.5754 124.877 100.426 123.822 100.426C122.768 100.426 121.908 99.5684 121.908 98.5172C121.908 97.466 122.768 96.6084 123.822 96.6084C124.877 96.6084 125.737 97.466 125.737 98.5172Z" fill="#2647C8"/>
<path d="M117.509 51.24H113.249V97.4937H117.509V51.24Z" fill="#2647C8"/>
<path d="M119.16 65.2102H111.605V72.5272H119.16V65.2102Z" fill="#1D3599"/>
<path d="M118.23 68.0388H112.534V75.3558H118.23V68.0388Z" fill="#1D3599"/>
<path d="M126.827 97.2447H103.931C103.931 95.8407 105.076 94.6996 106.484 94.6996H124.266C125.675 94.6996 126.82 95.8407 126.82 97.2447H126.827Z" fill="#120D80"/>
<path d="M136.623 31.419L136.339 33.0857L131.08 65.1963H107.837L112.867 34.3928C113.159 32.6777 114.657 31.419 116.399 31.419H136.623Z" fill="#6F8FE4"/>
<path d="M136.339 33.0858L131.08 65.1963H109.135L113.88 36.0596C114.172 34.3445 115.67 33.0927 117.412 33.0927H136.339V33.0858Z" fill="#2647C8"/>
<path d="M133.355 65.8464L129.088 65.1963L134.32 33.2171C134.5 32.1798 135.402 31.419 136.457 31.419C137.803 31.419 138.822 32.6224 138.593 33.9433L133.355 65.8464Z" fill="#1D3599"/>
<path d="M92.0603 68.1978H119.16C120.242 68.1978 121.117 67.3264 121.117 66.2476C121.117 65.1687 120.242 64.2973 119.16 64.2973H92.0603C90.978 64.2973 90.1038 65.1687 90.1038 66.2476C90.1038 67.3264 90.978 68.1978 92.0603 68.1978Z" fill="#2647C8"/>
<path d="M115.941 68.1978H131.794C132.877 68.1978 133.751 67.3264 133.751 66.2476C133.751 65.1687 132.877 64.2973 131.794 64.2973H115.941C114.859 64.2973 113.984 65.1687 113.984 66.2476C113.984 67.3264 114.859 68.1978 115.941 68.1978Z" fill="#1D3599"/>
<path d="M131.142 38.1482H116.288C115.989 38.1482 115.754 37.9061 115.754 37.6157C115.754 37.3183 115.996 37.0831 116.288 37.0831H131.142C131.44 37.0831 131.676 37.3183 131.676 37.6157C131.676 37.913 131.44 38.1482 131.142 38.1482Z" fill="#1D3599"/>
<path d="M129.657 45.0503H114.803C114.505 45.0503 114.269 44.8151 114.269 44.5178C114.269 44.2204 114.512 43.9852 114.803 43.9852H129.657C129.956 43.9852 130.192 44.2204 130.192 44.5178C130.192 44.8082 129.949 45.0503 129.657 45.0503Z" fill="#1D3599"/>
<path d="M128.173 51.9455H113.318C113.02 51.9455 112.784 51.7103 112.784 51.4129C112.784 51.1155 113.02 50.8804 113.318 50.8804H128.173C128.471 50.8804 128.707 51.1225 128.707 51.4129C128.707 51.7103 128.464 51.9455 128.173 51.9455Z" fill="#1D3599"/>
<path d="M122.685 15.6231C122.345 12.3726 120.548 9.24659 118.938 6.45947C118.321 5.39442 117.245 5.21461 116.357 5.56041C116.274 5.15928 116.177 4.75816 116.031 4.35012C115.358 2.42058 111.313 4.10806 110.897 5.53966C110.828 5.56041 110.758 5.6019 110.71 5.67798C109.801 6.96434 109.745 8.46509 110.515 9.78603C110.189 10.0281 110.016 10.3393 109.953 10.8234C109.891 11.2937 110.106 11.7847 110.078 12.255C110.078 12.338 110.051 12.4141 110.044 12.4971C109.176 13.2924 109.114 14.3644 109.502 15.3741C109.502 15.4294 109.502 15.4847 109.502 15.5401C108.954 16.529 108.802 17.5941 109.051 18.6591C109.079 18.8597 109.135 19.0603 109.232 19.2677C108.753 20.3743 107.379 22.1448 108.24 23.2236C108.635 23.7147 109.537 23.7423 110.085 23.8392C110.737 23.9567 110.911 23.9498 111.473 24.3233C111.757 24.5169 111.945 24.7313 112.305 24.842C112.971 25.0425 113.54 24.8281 114.109 24.4893C114.491 24.261 114.415 24.0743 114.886 24.0466C115.039 24.0397 115.455 24.2956 115.677 24.3164C117.058 24.4547 117.821 23.2375 118.036 22.0479C118.286 22.0272 118.543 21.9719 118.806 21.8543C121.783 20.5126 123.045 19.0257 122.685 15.6023V15.6231Z" fill="#0C1540"/>
<path fill-rule="evenodd" clip-rule="evenodd" d="M88.6052 91.4146C88.6052 91.4146 89.9164 95.8407 88.3276 96.5047C86.7388 97.1686 84.5603 99.3264 83.8665 100.578C83.8665 100.578 80.0437 101.111 77.1714 100.585C76.8869 100.537 76.7551 100.212 76.9077 99.9696C77.7125 98.7454 80.5363 97.5697 81.7504 96.2626C83.1311 94.7826 84.484 91.9402 86.2601 91.2762C88.0363 90.6192 88.6052 91.4076 88.6052 91.4076V91.4146Z" fill="#0C1540"/>
<path fill-rule="evenodd" clip-rule="evenodd" d="M88.0224 100.827C88.0224 100.827 88.8896 96.477 88.8272 95.7923C88.7578 95.1076 86.4336 95.7093 86.4336 95.7093L86.8707 100.786C86.8707 100.786 87.2731 101.138 88.0224 100.827Z" fill="#0C1540"/>
<path fill-rule="evenodd" clip-rule="evenodd" d="M84.5811 91.4353C84.7407 90.8198 84.9558 89.0493 84.9558 89.0493L88.9312 89.9622L88.737 91.9817C88.737 91.9817 82.7842 98.4619 81.1884 96.7813C83.5751 94.1394 84.1857 92.9845 84.5811 91.4353Z" fill="#FBBCBE"/>
<path fill-rule="evenodd" clip-rule="evenodd" d="M108.802 87.7768C108.802 87.7768 111.903 91.2001 110.758 92.4865C109.613 93.7729 108.587 96.6568 108.51 98.0815C108.51 98.0815 105.298 100.205 102.474 100.986C102.197 101.062 101.933 100.834 101.975 100.544C102.169 99.0981 104.202 96.8159 104.729 95.1076C105.326 93.1712 105.312 90.0314 106.63 88.6689C107.941 87.3065 108.802 87.7768 108.802 87.7768Z" fill="#0C1540"/>
<path fill-rule="evenodd" clip-rule="evenodd" d="M112.368 96.5116C112.368 96.5116 111.258 92.2168 110.904 91.629C110.543 91.0411 108.711 92.5833 108.711 92.5833L111.313 96.968C111.313 96.968 111.834 97.1133 112.368 96.5116Z" fill="#0C1540"/>
<path fill-rule="evenodd" clip-rule="evenodd" d="M105.18 89.5334C105.055 88.911 104.479 87.2235 104.479 87.2235L108.462 86.3314L109.162 88.2332C109.162 88.2332 106.616 96.643 104.438 95.82C105.444 92.4104 105.492 91.1033 105.173 89.5334H105.18Z" fill="#FBBCBE"/>
<path d="M115.199 48.1832C120.888 50.2372 117.453 60.1961 110.55 63.253C103.654 66.3098 95.5917 65.3692 89.4585 66.3375C87.7171 66.6141 82.9923 63.8131 85.9757 59.6705C88.959 55.5279 107.504 45.403 115.199 48.1832Z" fill="#F5F8FF"/>
<path d="M85.8438 59.6982C82.9785 66.3513 84.255 87.2719 83.5196 91.4837C83.5196 91.4837 87.1204 92.943 90.6935 93.0121C90.6935 93.0121 93.4895 67.5132 93.3646 64.4425C93.0941 58.0314 86.829 57.4159 85.8438 59.6982Z" fill="#F5F8FF"/>
<path d="M109.135 52.4849C109.135 52.4849 91.9354 58.9651 90.0621 62.4576C87.9599 66.3789 91.9354 77.1678 91.0196 89.9968L93.3716 65.9294L103.39 65.9571L114.401 54.4006L109.142 52.4849H109.135Z" fill="#D3DDF8"/>
<path d="M122.393 63.744C116.468 65.8326 109.988 65.7911 104.132 66.0055C103.355 66.0332 102.592 66.0677 101.836 66.1023C101.447 66.1231 101.066 66.1507 100.684 66.1784C98.922 66.3098 93.8087 63.2737 97.1112 59.3731C97.3471 59.0896 97.7078 58.7576 98.1588 58.3841C98.1588 58.3841 98.1657 58.3772 98.1727 58.3772C103.959 53.6468 125.488 42.8579 128.79 50.0989C129.116 50.8112 129.366 51.572 129.505 52.3604C130.351 56.6483 128.415 61.6277 122.393 63.7509V63.744Z" fill="#F5F8FF"/>
<path d="M105.693 62.3331C105.707 62.3954 105.721 62.4646 105.742 62.5475C105.929 63.3913 106.262 65.2862 106.665 67.7276C108.08 76.241 110.099 88.5375 110.099 88.5375C107.581 90.2942 103.508 90.8475 103.508 90.8475C103.432 86.7187 93.7393 67.7621 96.2647 60.4659V60.452C96.3202 60.2653 96.3965 60.0993 96.4729 59.9333C97.2638 58.2943 101.094 56.9941 103.64 58.9236C104.542 59.6083 105.291 60.701 105.68 62.3331H105.693Z" fill="#F5F8FF"/>
<path d="M129.505 52.3535C129.054 52.0492 128.561 51.7725 128.02 51.5582C127.881 51.4959 127.777 51.5374 127.694 51.6066C127.451 51.5236 127.09 51.7103 127.174 52.0561C128.395 57.4574 122.365 59.8296 118.21 60.7771C113.818 61.7868 109.315 62.6236 104.833 61.8905C104.472 61.8352 104.112 61.766 103.751 61.6831C103.563 61.6346 103.321 61.7384 103.279 61.9528C102.967 63.4812 107.4 70.3418 107.324 71.7111C106.491 68.8825 105.964 66.7109 106.36 65.9433C112.215 65.7289 116.468 65.8464 122.393 63.7578C128.415 61.6346 130.351 56.6552 129.505 52.3673V52.3535Z" fill="#D3DDF8"/>
<path d="M93.996 42.3392C92.2823 39.7734 89.1533 27.47 88.5635 25.3399C87.8489 22.781 91.0265 20.5541 92.0533 23.0646C93.0385 25.4852 99.9557 39.1925 100.157 40.7693C100.518 43.6118 96.1468 45.5551 93.996 42.3392Z" fill="#FBBCBE"/>
<path d="M114.997 28.376C113.374 31.502 102.773 40.9215 100.823 42.7334C98.471 44.912 93.4756 42.4222 94.5927 39.7043C95.5779 37.2975 107.074 24.6552 108.698 23.5349C111.625 21.5154 117.037 24.4616 115.004 28.3691L114.997 28.376Z" fill="#FBBCBE"/>
<path d="M109.704 35.7968C113.2 32.5117 116.024 27.8158 116.919 26.1007C119.063 22.0341 115.476 18.9911 111.313 20.5403C110.467 20.8515 105.256 24.2541 102.211 27.9334C103.432 31.6956 109.024 35.5547 109.704 35.8037V35.7968Z" fill="url(#paint0_linear_1_179)"/>
<path d="M113.277 20.0907C112.222 20.8169 108.115 23.604 107.83 29.8491C107.699 32.8091 111.792 36.1841 110.807 40.8661C109.856 45.3684 107.456 48.3007 107.456 48.3007C107.456 48.3007 115.282 55.4795 130.337 52.0422C128.741 39.0472 130.83 32.3042 129.255 23.6939C128.589 20.0492 123.94 19.5789 123.032 19.496C122.123 19.413 116.947 19.1087 113.284 20.0907H113.277Z" fill="url(#paint1_linear_1_179)"/>
<path d="M115.76 16.038C115.76 16.038 115.983 19.3023 115.101 19.6066C114.373 19.8625 113.277 20.0907 113.277 20.0907C113.277 20.0907 117.8 26.896 123.163 19.4614C123.163 19.4614 121.561 19.4821 121.068 18.839C120.575 18.1958 120.263 15.0075 120.513 12.8982L115.76 16.0311V16.038Z" fill="#FBBCBE"/>
<path d="M121.068 18.839C120.575 18.1958 120.263 15.0075 120.513 12.8982L117.648 14.9522C118.217 15.4571 119.077 16.8748 119.049 16.9578C119.791 18.3549 120.215 20.3259 118.758 21.3979C117.641 22.2278 116.149 22.1863 114.775 21.7782C116.621 23.1476 119.757 24.1642 123.163 19.4545C123.163 19.4545 121.561 19.4752 121.068 18.832V18.839Z" fill="#DA91A7"/>
<path d="M131.378 24.5792C133.834 26.8199 140.259 39.1164 141.507 41.3987C143.013 44.1512 140.834 47.5538 138.413 46.4058C136.346 45.4237 126.778 31.5158 126.077 29.7039C124.808 26.4257 128.311 21.7782 131.378 24.5792Z" fill="#FBBCBE"/>
<path d="M139.932 46.9245C137.379 48.4667 126.945 50.7075 124.974 51.1709C122.608 51.731 120.728 48.2247 123.101 47.3602C125.39 46.5234 138.212 40.9007 139.627 40.7901C142.18 40.5895 143.117 44.9949 139.926 46.9314L139.932 46.9245Z" fill="#FBBCBE"/>
<path d="M136.859 29.9321C134.458 25.9762 130.726 22.4767 129.352 21.3287C126.077 18.59 123.503 22.4767 123.677 25.99C123.732 27.0966 124.634 31.6956 127.444 35.2643C130.92 34.6418 136.547 30.5614 136.859 29.9252V29.9321Z" fill="url(#paint2_linear_1_179)"/>
<path d="M123.476 8.85237C123.434 8.61723 121.838 7.32396 121.665 7.41386C121.637 7.41386 121.755 12.8913 121.498 13.3892C121.311 13.7558 121.026 14.5857 121.554 14.7931C122.046 14.9868 122.664 14.7102 122.934 14.3021C124.669 11.7017 123.58 9.46097 123.476 8.85237Z" fill="#0C1540"/>
<path d="M113.082 3.866V13.8111C113.082 16.0518 115.067 17.8638 117.516 17.8638C119.965 17.8638 121.949 16.0518 121.949 13.8111V13.6244C121.949 13.6244 124.225 14.1154 124.225 11.6326C124.225 9.14976 122.796 9.49555 122.796 9.49555V3.866H113.089H113.082Z" fill="#FBBCBE"/>
<path d="M122.789 9.50246V4.46075H119.34C119.34 4.46075 119.34 6.27272 119.34 6.30039V14.89C119.34 16.3907 117.884 17.6079 116.371 17.5595C115.899 17.5457 115.469 17.4143 115.094 17.2068C115.788 17.6217 116.614 17.8707 117.509 17.8707C119.958 17.8707 121.942 16.0587 121.942 13.818V13.6313C121.942 13.6313 124.218 14.1223 124.218 11.6395C124.218 9.15666 122.789 9.50246 122.789 9.50246Z" fill="#DA91A7"/>
<path d="M109.447 34.3237C110.952 35.2919 115.74 36.7788 122.705 35.776C122.705 35.776 114.553 37.8854 110.744 37.6087C110.744 37.6087 110.293 36.1772 109.447 34.3168V34.3237Z" fill="url(#paint3_linear_1_179)"/>
<path d="M116.094 52.6024C116.794 51.648 117.453 50.7144 116.871 51.3783C116.128 52.2359 114.893 51.731 115.629 50.8873C116.551 49.8223 117.495 48.5221 118.681 47.7613C119.965 46.9314 121.928 47.6368 123.295 47.2772C123.843 47.132 125.703 50.4862 125.342 50.8181C124.128 51.9109 122.241 51.406 122.053 51.5651C121.623 52.1667 121.457 52.5471 121.11 53.1557C120.666 53.9303 119.243 53.8473 119.68 53.0727C119.965 52.5817 119.722 52.5125 119.299 53.1903C118.758 54.0617 117.301 53.875 117.835 53.0105C118.064 52.6439 118.043 52.4365 117.703 52.8998C117.009 53.8404 115.393 53.5361 116.087 52.6024H116.094Z" fill="#FBBCBE"/>
<path d="M91.2139 25.4921C89.8332 25.0909 86.3642 25.6926 85.0945 24.8904C83.9151 24.1504 83.9498 23.4173 83.0548 22.4352C82.5622 21.8958 82.6316 21.301 83.0409 21.0866C82.9785 20.8792 82.5483 20.5956 82.576 20.2083C82.6246 19.5651 83.4017 19.572 84.0677 20.4296C84.3938 20.8515 83.7416 19.7795 83.5266 19.4476C83.0131 18.6661 84.5117 18.6038 85.0321 19.3922C85.2819 19.7795 85.7259 20.3466 85.7745 20.2775C85.8022 20.236 85.5178 19.6827 85.4206 19.5167C85.0043 18.8182 86.4613 18.839 86.8845 19.5375C87.2106 20.0838 88.3068 21.2803 88.7231 21.8335C88.8133 21.9096 89.3128 21.9235 89.9373 22.041C89.8263 21.6952 89.4863 21.4393 89.2018 21.1558C88.9798 20.9414 88.8757 20.644 89.1394 20.4296C89.4238 20.2014 89.7638 20.3466 90.0413 20.5126C90.4437 20.7477 90.7282 20.9621 91.1028 21.2595C91.2763 21.4048 91.9909 22.6842 92.2199 23.4035C92.3656 23.853 91.7897 25.6442 91.2277 25.4851L91.2139 25.4921Z" fill="#FBBCBE"/>
<path d="M121.165 6.73609C120.548 9.34339 121.096 11.764 121.096 11.764C121.713 11.2383 123.004 11.3628 123.004 11.3628C123.004 11.3628 127.111 7.11646 125.342 3.76224C125.342 3.76224 125.335 3.76224 125.335 3.74841C124.558 2.30299 123.58 1.38317 122.539 0.816064C119.431 -0.871419 115.816 0.594755 115.816 0.594755C110.765 -0.442632 108.85 4.6129 110.279 5.88543C113.617 8.85927 121.179 6.743 121.179 6.743L121.165 6.73609Z" fill="#0C1540"/>
<path d="M130.969 16.453C131.225 15.7061 131.35 14.966 131.204 14.1292C131.031 13.1264 130.122 12.4832 129.886 11.6879C129.512 10.4223 130.115 9.14976 129.421 7.8634C129.061 7.19256 128.582 6.77069 127.985 6.45256C127.805 3.91442 126.598 1.46618 123.663 1.61142C123.24 1.45235 122.782 1.34861 122.296 1.31403C121.914 1.28637 121.762 1.77048 121.984 1.95721C122.13 3.45105 122.053 4.91723 121.769 6.39032C121.699 6.41798 121.637 6.46639 121.595 6.54247C120.811 7.91182 120.895 9.41257 121.797 10.6505C121.491 10.9202 121.353 11.2453 121.339 11.7363C121.325 12.2135 121.581 12.6769 121.602 13.1541C121.63 13.818 121.359 14.4543 121.297 15.1044C121.151 16.7158 121.866 18.3687 121.491 19.9801C121.235 21.0797 119.785 23.1822 120.811 24.2472C121.248 24.7037 122.157 24.6345 122.705 24.6829C123.371 24.7382 123.538 24.7106 124.128 25.0356C124.433 25.2016 124.634 25.3952 125.009 25.4713C125.696 25.6096 126.237 25.3399 126.771 24.9526C127.132 24.6898 127.035 24.51 127.5 24.4408C127.652 24.4201 128.089 24.6414 128.311 24.6414C129.831 24.6414 130.469 23.0922 130.462 21.8059C130.462 21.2734 130.289 20.727 130.414 20.2291C130.462 20.0354 130.663 19.8349 130.74 19.6481C131.073 18.832 131.135 17.9053 131.045 17.0339C131.024 16.8403 130.989 16.6466 130.955 16.4599L130.969 16.453Z" fill="#0C1540"/>
<path d="M6.7923 46.2467H4.05873V100.433H6.7923V46.2467Z" fill="#6F8FE4"/>
<path d="M3.31636 100.426H4.06567L4.06567 46.2398H3.31636L3.31636 100.426Z" fill="#83A5F2"/>
<path d="M29.8126 46.2467H27.079V100.433H29.8126V46.2467Z" fill="#6F8FE4"/>
<path d="M26.3228 100.426H27.0721L27.0721 46.2398H26.3228L26.3228 100.426Z" fill="#83A5F2"/>
<path d="M83.8457 46.2467H81.1121V100.433H83.8457V46.2467Z" fill="#1D3599"/>
<path d="M80.3698 100.426H81.1191V46.2398H80.3698V100.426Z" fill="#6F8FE4"/>
<path d="M111.015 46.2467H108.281V100.433H111.015V46.2467Z" fill="#1D3599"/>
<path d="M107.532 100.426H108.281V46.2398H107.532V100.426Z" fill="#6F8FE4"/>
<path d="M112.909 43.4942H0V46.7723H112.909V43.4942Z" fill="#6F8FE4"/>
<path d="M112.909 43.4942H77.4003V46.7723H112.909V43.4942Z" fill="#2647C8"/>
<path d="M41.9888 36.5161L88.7925 36.5161V7.97408L41.9888 7.97408V36.5161Z" fill="#6F8FE4"/>
<path d="M40.733 36.5161L87.5367 36.5161V7.97408L40.733 7.97408V36.5161Z" fill="white"/>
<path d="M56.3504 33.6667H68.145V19.6827H56.3504V33.6667Z" fill="#6F8FE4"/>
<path d="M57.1969 42.2148H67.3055V28.8048H57.1969V42.2148Z" fill="#6F8FE4"/>
<path d="M56.3504 42.2148H66.4591V28.8048H56.3504V42.2148Z" fill="#6F8FE4"/>
<path d="M55.504 33.6667H67.2986V19.6827H55.504V33.6667Z" fill="#D3DDF8"/>
<path d="M53.0896 43.425H72.5021V40.9976H53.0896V43.425Z" fill="#6F8FE4"/>
<path d="M51.9934 43.425H71.4059V40.9976H51.9934V43.425Z" fill="white"/>
<path d="M52.9994 98.5172C52.9994 99.5754 53.8597 100.426 54.9143 100.426C55.9688 100.426 56.8291 99.5684 56.8291 98.5172C56.8291 97.466 55.9688 96.6084 54.9143 96.6084C53.8597 96.6084 52.9994 97.466 52.9994 98.5172Z" fill="#1D3599"/>
<path d="M44.5558 98.5172C44.5558 99.5754 45.4161 100.426 46.4707 100.426C47.5253 100.426 48.3856 99.5684 48.3856 98.5172C48.3856 97.466 47.5253 96.6084 46.4707 96.6084C45.4161 96.6084 44.5558 97.466 44.5558 98.5172Z" fill="#1D3599"/>
<path d="M36.1123 98.5172C36.1123 99.5754 36.9726 100.426 38.0272 100.426C39.0817 100.426 39.9421 99.5684 39.9421 98.5172C39.9421 97.466 39.0817 96.6084 38.0272 96.6084C36.9726 96.6084 36.1123 97.466 36.1123 98.5172Z" fill="#1D3599"/>
<path d="M44.3407 97.4937H48.6007L48.6007 51.24H44.3407L44.3407 97.4937Z" fill="#120D80"/>
<path d="M42.6895 72.5272H50.245V65.2102H42.6895V72.5272Z" fill="#1D3599"/>
<path d="M43.6192 75.3558H49.3153V68.0388H43.6192V75.3558Z" fill="#1D3599"/>
<path d="M35.023 97.2447H57.9184C57.9184 95.8407 56.7736 94.6996 55.3652 94.6996H37.5831C36.1747 94.6996 35.03 95.8407 35.03 97.2447H35.023Z" fill="#120D80"/>
<path d="M46.7274 31.419L46.9564 33.0857L51.5424 65.1963H28.3001L23.8806 34.3928C23.6447 32.6777 24.7548 31.419 26.5032 31.419H46.7274Z" fill="#1D3599"/>
<path d="M54.0123 65.8464L49.5512 65.1963L44.9721 33.2171C44.8333 32.1798 45.4994 31.419 46.5609 31.419C47.9069 31.419 49.2945 32.6224 49.4749 33.9433L54.0192 65.8464H54.0123Z" fill="#2647C8"/>
<path d="M64.6205 68.1978H42.6895C41.6072 68.1978 40.733 67.3264 40.733 66.2476C40.733 65.1687 41.6072 64.2973 42.6895 64.2973H64.6205C65.7028 64.2973 66.577 65.1687 66.577 66.2476C66.577 67.3264 65.7028 68.1978 64.6205 68.1978Z" fill="#2647C8"/>
<path d="M53.5405 68.1978H30.0554C28.9731 68.1978 28.0989 67.3264 28.0989 66.2476C28.0989 65.1687 28.9731 64.2973 30.0554 64.2973H53.5405C54.6229 64.2973 55.497 65.1687 55.497 66.2476C55.497 67.3264 54.6229 68.1978 53.5405 68.1978Z" fill="#1D3599"/>
</g>
<defs>
<linearGradient id="paint0_linear_1_179" x1="127.557" y1="20.3513" x2="95.0606" y2="35.0959" gradientUnits="userSpaceOnUse">
<stop stop-color="#FFD000"/>
<stop offset="1" stop-color="#FF7300"/>
</linearGradient>
<linearGradient id="paint1_linear_1_179" x1="107.456" y1="36.1841" x2="130.337" y2="36.1841" gradientUnits="userSpaceOnUse">
<stop stop-color="#FFD000"/>
<stop offset="1" stop-color="#FF7300"/>
</linearGradient>
<linearGradient id="paint2_linear_1_179" x1="125.512" y1="11.2676" x2="134.043" y2="42.3634" gradientUnits="userSpaceOnUse">
<stop stop-color="#FFD000"/>
<stop offset="1" stop-color="#FF7300"/>
</linearGradient>
<linearGradient id="paint3_linear_1_179" x1="99.1856" y1="35.9835" x2="122.594" y2="35.9835" gradientUnits="userSpaceOnUse">
<stop stop-color="#FFD000"/>
<stop offset="1" stop-color="#FF7300"/>
</linearGradient>
<clipPath id="clip0_1_179">
<rect width="142" height="101" fill="white"/>
</clipPath>
</defs>
</svg>
