<svg width="118" height="101" viewBox="0 0 118 119" fill="none" xmlns="http://www.w3.org/2000/svg">
<g clip-path="url(#clip0_1_275)">
<path d="M94.0893 4.45584C94.0632 4.88516 94.2721 5.33399 94.8008 5.50312C98.1952 6.59594 100.48 7.80584 100.761 11.8128C100.878 13.5236 100.552 15.2214 100.382 16.9192C100.134 19.4626 100.101 22.1491 101.563 24.3607C103.783 27.7172 109.325 28.771 112.85 27.0993C113.861 26.6179 113.241 25.2714 112.334 25.1933C105.63 24.5754 109.553 13.8489 109.84 10.0175C110.043 7.29196 109.338 4.2672 107.497 2.14011C104.318 -1.54165 96.857 -0.0715487 94.1872 3.53865C93.9457 3.8704 93.9457 4.19564 94.0893 4.45584Z" fill="#0C1540"/>
<path fill-rule="evenodd" clip-rule="evenodd" d="M108.835 106.452C108.835 106.452 111.655 109.757 110.545 110.934C109.436 112.111 108.385 114.798 108.274 116.131C108.274 116.131 105.193 118.044 102.516 118.694C102.249 118.759 102.014 118.532 102.06 118.265C102.281 116.912 104.259 114.824 104.801 113.237C105.421 111.435 105.493 108.475 106.766 107.233C108.039 105.99 108.835 106.452 108.835 106.452Z" fill="#0C1540"/>
<path fill-rule="evenodd" clip-rule="evenodd" d="M111.942 114.765C111.942 114.765 111.022 110.693 110.702 110.134C110.382 109.574 108.613 110.973 108.613 110.973L110.937 115.169C110.937 115.169 111.42 115.318 111.942 114.765Z" fill="#0C1540"/>
<path fill-rule="evenodd" clip-rule="evenodd" d="M105.382 108.007C105.278 107.415 99.8532 91.3868 99.8532 91.3868L106.022 90.3591L109.168 106.894C109.168 106.894 106.537 114.726 104.514 113.894C105.558 110.713 105.637 109.49 105.382 108.007Z" fill="#FBBCBE"/>
<path fill-rule="evenodd" clip-rule="evenodd" d="M89.0238 109.698C89.0238 109.698 90.4077 113.809 88.9325 114.492C87.4572 115.169 85.4859 117.27 84.8788 118.473C84.8788 118.473 81.3082 119.098 78.5796 118.707C78.312 118.668 78.1749 118.369 78.312 118.141C79.0235 116.964 81.6411 115.761 82.7377 114.492C83.9845 113.048 85.1595 110.336 86.8044 109.653C88.4494 108.976 89.0173 109.698 89.0173 109.698H89.0238Z" fill="#0C1540"/>
<path fill-rule="evenodd" clip-rule="evenodd" d="M88.8019 118.564C88.8019 118.564 89.4677 114.447 89.3829 113.809C89.298 113.172 87.1308 113.809 87.1308 113.809L87.7183 118.564C87.7183 118.564 88.11 118.883 88.8019 118.564Z" fill="#0C1540"/>
<path fill-rule="evenodd" clip-rule="evenodd" d="M85.2443 109.854C85.3684 109.269 84.9506 90.3656 84.9506 90.3656L91.6349 91.9853L89.174 110.231C89.174 110.231 83.8017 116.522 82.2351 115C84.3892 112.437 84.9245 111.331 85.2443 109.861V109.854Z" fill="#FBBCBE"/>
<path d="M81.5236 93.0911C87.3658 97.0721 99.3832 95.5174 106.159 94.197C109.122 93.618 111.081 93.0911 111.081 93.0911C107.993 87.8872 107.393 72.178 108.085 62.7785C108.77 53.3919 105.656 46.8936 105.656 46.8936C105.656 46.8936 102.856 46.5683 99.2722 46.3667C93.7237 46.061 86.3214 46.0545 84.7156 48.0384C82.0915 51.3039 82.2873 72.7699 82.5745 77.551C82.8618 82.3321 81.5171 93.0911 81.5171 93.0911H81.5236Z" fill="#F5F8FF"/>
<path d="M104.514 62.7004C101.054 73.7457 101.988 84.8365 107.967 93.8327C109.534 93.618 111.081 93.0976 111.081 93.0976C107.993 87.8937 107.393 72.1845 108.085 62.785C108.77 53.3985 105.656 46.9001 105.656 46.9001C105.656 46.9001 102.856 46.5749 99.2722 46.3732C100.917 50.4387 106.081 57.6982 104.507 62.7069L104.514 62.7004Z" fill="#D3DDF8"/>
<path d="M83.8997 46.9066C81.0406 47.453 70.1133 45.8398 68.044 45.5796C65.557 45.2608 64.3363 41.2864 66.8952 41.3124C69.3626 41.3384 83.3383 40.6099 84.7809 41.0132C87.3919 41.7352 87.4833 46.2236 83.8997 46.9066Z" fill="#FBBCBE"/>
<path d="M92.5814 27.1253C92.4052 30.4298 86.9872 42.6004 86.0146 44.9096C84.8462 47.6872 79.5914 47.4855 79.4935 44.721C79.4021 42.2816 84.337 27.0017 85.2966 25.4145C87.0199 22.5524 92.8033 22.9882 92.5814 27.1188V27.1253Z" fill="#FBBCBE"/>
<path d="M90.9234 35.5296C92.6467 31.36 93.2342 26.2471 93.3386 24.4323C93.5932 20.1261 89.3372 18.8966 86.3671 21.8303C85.7665 22.4223 82.6202 27.3465 81.4387 31.6787C83.9453 34.4303 90.2445 35.5751 90.9234 35.5231V35.5296Z" fill="url(#paint0_linear_1_275)"/>
<path d="M89.0826 20.2887C88.0904 20.9717 84.1673 23.5866 83.8996 29.467C83.7756 32.2511 85.9297 36.8891 85.6295 40.2846C84.9702 47.7522 82.5811 50.5363 82.5811 50.5363C82.5811 50.5363 93.2668 52.878 107.432 49.6451C101.368 34.5734 105.597 31.7828 104.116 23.6777C103.489 20.2496 99.1155 19.8073 98.2604 19.7293C97.4053 19.6577 92.5357 19.365 89.0891 20.2887H89.0826Z" fill="url(#paint1_linear_1_275)"/>
<path d="M91.4195 16.4703C91.4195 16.4703 91.6284 19.5406 90.7994 19.8268C90.1139 20.061 89.0826 20.2822 89.0826 20.2822C89.0826 20.2822 93.3386 26.683 98.3845 19.6902C98.3845 19.6902 96.8766 19.7098 96.4131 19.1048C95.9496 18.4998 95.6559 15.5011 95.8909 13.5171L91.4195 16.4638V16.4703Z" fill="#FBBCBE"/>
<path d="M96.4131 19.1113C95.9496 18.5063 95.6559 15.5076 95.8909 13.5236L93.195 15.4556C93.7303 15.9304 94.5397 17.2639 94.5136 17.3485C95.212 18.6625 95.6102 20.5098 94.2394 21.5246C93.1885 22.3052 91.785 22.2662 90.4926 21.8824C92.2289 23.1703 95.1794 24.1265 98.3845 19.6967C98.3845 19.6967 96.8766 19.7163 96.4131 19.1113Z" fill="#DA91A7"/>
<path d="M105.872 23.6387C108.417 25.4536 115.813 36.2126 117.243 38.2031C118.96 40.6034 117.315 44.0249 114.919 43.2248C112.882 42.5418 102.366 30.6379 101.505 29.0182C99.9511 26.0975 102.693 21.3685 105.878 23.6322L105.872 23.6387Z" fill="#FBBCBE"/>
<path d="M114.984 43.9404C112.243 44.5583 102.262 43.4395 100.369 43.2704C98.0907 43.0622 97.4641 39.374 99.8467 39.3089C102.144 39.2504 115.271 38.0535 116.564 38.3787C118.901 38.9642 118.418 43.1728 114.991 43.9404H114.984Z" fill="#FBBCBE"/>
<path d="M111.596 28.0165C108.907 24.5949 105.023 21.7458 103.607 20.8286C100.238 18.643 97.2095 22.9362 98.8349 25.8243C99.2396 26.5464 101.479 30.5338 104.507 33.5521C107.686 32.5829 111.381 28.6474 111.596 28.023V28.0165Z" fill="url(#paint2_linear_1_275)"/>
<path d="M98.6782 9.71828C98.639 9.49711 97.1377 8.2807 96.9745 8.35876C96.9484 8.35876 97.0594 13.5106 96.8178 13.979C96.6416 14.3237 96.3739 15.1043 96.87 15.2994C97.3335 15.4816 97.9145 15.2214 98.169 14.8376C99.801 12.3918 98.7761 10.2842 98.6782 9.71177V9.71828Z" fill="#0C1540"/>
<path d="M88.8998 5.02826V14.3823C88.8998 16.4898 90.7667 18.1941 93.071 18.1941C95.3752 18.1941 97.2421 16.4898 97.2421 14.3823V14.2066C97.2421 14.2066 99.3832 14.6685 99.3832 12.3332C99.3832 9.99798 98.0385 10.3232 98.0385 10.3232V5.02826H88.9063H88.8998Z" fill="#FBBCBE"/>
<path d="M98.032 10.3297V5.58768H94.7877C94.7877 5.6137 94.7877 7.29195 94.7877 7.31797V15.397C94.7877 16.8086 93.4169 17.9534 91.9939 17.9079C91.55 17.8949 91.1453 17.7713 90.7928 17.5761C91.4456 17.9664 92.2224 18.2006 93.0644 18.2006C95.3687 18.2006 97.2356 16.4963 97.2356 14.3888V14.2131C97.2356 14.2131 99.3767 14.675 99.3767 12.3397C99.3767 10.0045 98.032 10.3297 98.032 10.3297Z" fill="#DA91A7"/>
<path d="M91.0017 8.50187C90.708 8.46934 89.8985 8.52789 89.6178 8.47585C89.7092 8.20264 89.5395 6.48536 89.3698 6.84963C89.2197 7.17488 89.2392 8.18963 89.1152 8.52138C88.6126 8.39779 87.4833 8.56692 87.0786 8.35876C86.824 7.31798 86.9285 4.69652 88.9063 2.86215C90.6361 1.25545 95.7734 0.819623 97.1181 4.11108C97.1181 4.11108 98.7174 4.28021 99.1351 5.43808C99.5529 6.59594 98.8805 10.3297 97.3792 10.8436C96.7134 11.0713 96.1781 10.6159 96.028 9.29546C95.9301 8.4108 96.1259 6.81711 96.1259 6.81711C96.1259 6.81711 95.447 8.39128 93.9848 8.44983C93.9457 8.0075 93.8151 6.70653 93.6519 6.70653C93.43 6.70653 93.3255 8.014 93.3712 8.46934C92.6271 8.48235 92.4704 8.59294 91.6675 8.52789C91.6088 7.8774 91.5109 6.51788 91.3672 6.55041C91.1975 6.58293 91.0409 7.81886 91.0082 8.50187H91.0017Z" fill="#0C1540"/>
<path d="M84.8592 34.9637C84.8592 34.9637 89.0891 37.442 96.5828 35.4775C96.5828 35.4775 89.1478 38.5673 85.5642 38.3072L84.8592 34.9637Z" fill="url(#paint3_linear_1_275)"/>
<path d="M86.1386 43.1403H59.5255V44.5388H86.1386V43.1403Z" fill="#1D3599"/>
<path d="M86.1386 44.5453H98.391V43.7582C98.391 43.42 98.1168 43.1468 97.7774 43.1468H86.1386V44.5453Z" fill="#120D80"/>
<path d="M60.2696 43.1403H86.7783L83.286 26.8781C83.1816 26.4033 82.7834 26.065 82.3265 26.065H58.4549C57.5084 26.065 56.8034 26.9952 57.0123 27.9774L60.2631 43.1403H60.2696Z" fill="#1D3599"/>
<path d="M59.6299 43.1403H86.1386L82.6463 26.8781C82.5419 26.4033 82.1437 26.065 81.6868 26.065H57.3126C56.6207 26.065 56.1115 26.7415 56.2617 27.457L59.6299 43.1403Z" fill="#120D80"/>
<path opacity="0.11" d="M70.035 26.065L62.5674 43.1403H65.9878L73.7296 26.065H70.035Z" fill="#F0F5FF"/>
<path opacity="0.11" d="M75.6161 26.065L68.1485 43.1403H69.4801L77.2219 26.065H75.6161Z" fill="#F0F5FF"/>
<path d="M68.1093 44.103C68.044 43.8818 67.8156 43.5046 67.5545 43.6021C67.5218 43.6151 67.4957 43.6347 67.4761 43.6542C67.4761 43.4981 67.45 43.3354 67.3913 43.1793C67.2803 42.8541 66.9474 42.3922 66.6275 42.724C66.5035 42.8541 66.4187 43.0297 66.3534 43.2248C66.2555 42.9321 66.0727 42.6914 65.7594 42.5874C65.2959 42.4378 65.1458 42.815 65.0935 43.2379C64.963 42.8411 64.6888 42.2751 64.3102 42.6264C64.1013 42.8215 64.0034 43.2379 63.9186 43.5111C63.8011 43.9079 63.7293 44.3177 63.6966 44.7405C63.6966 44.76 63.6966 44.773 63.6966 44.786C63.6705 44.8315 63.664 44.8966 63.6966 44.9616C63.8925 45.3715 64.3624 45.7617 64.7084 45.3259C64.7933 45.2153 64.8716 45.0852 64.9434 44.9421C64.9695 45.3324 65.0935 45.6577 65.433 45.6967C65.792 45.7357 66.04 45.3845 66.1967 44.9812C66.1967 44.9877 66.2032 45.0007 66.2098 45.0072C66.3273 45.1698 66.4839 45.378 66.6993 45.3519C66.8625 45.3259 66.9866 45.1568 67.0779 44.9877C67.091 45.0332 67.1171 45.0722 67.1497 45.0917C67.7503 45.3975 68.3051 44.773 68.1028 44.1095L68.1093 44.103Z" fill="#FBBCBE"/>
<path d="M92.0135 41.8979C92.9274 41.2604 93.7955 40.6229 93.0775 41.0392C92.1571 41.5791 91.2041 40.766 92.1179 40.2326C93.2603 39.5626 94.494 38.6844 95.7799 38.3592C97.1703 38.0079 98.7174 39.2178 100.042 39.3024C100.578 39.3349 101.231 42.8801 100.806 43.0687C99.3962 43.6867 97.8623 42.6654 97.6468 42.7565C97.0789 43.1598 96.8178 43.4525 96.3283 43.8948C95.6951 44.4543 94.4548 43.9469 95.0815 43.394C95.4797 43.0427 95.2904 42.9061 94.7029 43.3875C93.9587 43.9989 92.712 43.4005 93.4561 42.789C93.7694 42.5288 93.8151 42.3402 93.3712 42.6524C92.4704 43.2834 91.1192 42.5288 92.0135 41.9044V41.8979Z" fill="#FBBCBE"/>
<path d="M5.35265 67.7872H2.78076V118.753H5.35265V67.7872Z" fill="#6F8FE4"/>
<path d="M2.07578 118.746H2.78076L2.78076 67.7807H2.07578L2.07578 118.746Z" fill="#83A5F2"/>
<path d="M21.8806 67.7872H19.3087V118.753H21.8806V67.7872Z" fill="#6F8FE4"/>
<path d="M18.5972 118.746H19.3022L19.3022 67.7807H18.5972L18.5972 118.746Z" fill="#83A5F2"/>
<path d="M46.9729 67.7872H44.401V118.753H46.9729V67.7872Z" fill="#1D3599"/>
<path d="M43.7025 118.746H44.4075L44.4075 67.7807H43.7025L43.7025 118.746Z" fill="#6F8FE4"/>
<path d="M66.3664 67.7872H63.7946V118.753H66.3664V67.7872Z" fill="#1D3599"/>
<path d="M63.0896 118.746H63.7946L63.7946 67.7807H63.0896L63.0896 118.746Z" fill="#6F8FE4"/>
<path d="M63.0896 65.1983H0V68.2816H63.0896V65.1983Z" fill="#6F8FE4"/>
<path d="M68.1485 65.1983H40.9087V68.2816H68.1485V65.1983Z" fill="#2647C8"/>
<path d="M28.7934 117.205C28.7934 118.2 29.6028 119 30.595 119C31.5872 119 32.3966 118.193 32.3966 117.205C32.3966 116.216 31.5872 115.409 30.595 115.409C29.6028 115.409 28.7934 116.216 28.7934 117.205Z" fill="#1D3599"/>
<path d="M20.8493 117.205C20.8493 118.2 21.6587 119 22.6509 119C23.6431 119 24.4525 118.193 24.4525 117.205C24.4525 116.216 23.6431 115.409 22.6509 115.409C21.6587 115.409 20.8493 116.216 20.8493 117.205Z" fill="#1D3599"/>
<path d="M12.8986 117.205C12.8986 118.2 13.708 119 14.7002 119C15.6924 119 16.5019 118.193 16.5019 117.205C16.5019 116.216 15.6924 115.409 14.7002 115.409C13.708 115.409 12.8986 116.216 12.8986 117.205Z" fill="#1D3599"/>
<path d="M20.6404 116.242H24.6483L24.6483 72.7374H20.6404L20.6404 116.242Z" fill="#120D80"/>
<path d="M19.0933 92.7594H26.2019V85.8772H19.0933V92.7594Z" fill="#1D3599"/>
<path d="M19.9681 95.4199H25.3272V88.5377H19.9681V95.4199Z" fill="#1D3599"/>
<path d="M11.8803 116.001H33.4215C33.4215 114.681 32.3444 113.607 31.0193 113.607H14.289C12.9639 113.607 11.8868 114.681 11.8868 116.001H11.8803Z" fill="#120D80"/>
<path d="M22.8859 54.088L23.1013 55.6556L27.4161 85.8577H5.54849L1.39692 56.885C1.17498 55.2718 2.2194 54.088 3.85784 54.088H22.8859Z" fill="#1D3599"/>
<path d="M29.7464 86.4692L25.5492 85.8577L21.2409 55.7792C21.1104 54.8035 21.737 54.088 22.7292 54.088C23.9956 54.088 25.3011 55.2198 25.4708 56.4622L29.7464 86.4692Z" fill="#2647C8"/>
<path d="M39.7206 88.6873H19.0933C18.075 88.6873 17.2525 87.8677 17.2525 86.853C17.2525 85.8382 18.075 85.0186 19.0933 85.0186H39.7206C40.739 85.0186 41.5614 85.8382 41.5614 86.853C41.5614 87.8677 40.739 88.6873 39.7206 88.6873Z" fill="#2647C8"/>
<path d="M29.3025 88.6873H7.20651C6.1882 88.6873 5.36572 87.8677 5.36572 86.853C5.36572 85.8382 6.1882 85.0186 7.20651 85.0186H29.3025C30.3209 85.0186 31.1433 85.8382 31.1433 86.853C31.1433 87.8677 30.3209 88.6873 29.3025 88.6873Z" fill="#1D3599"/>
</g>
<defs>
<linearGradient id="paint0_linear_1_275" x1="100.51" y1="15.3458" x2="78.415" y2="40.5639" gradientUnits="userSpaceOnUse">
<stop stop-color="#FFD000"/>
<stop offset="1" stop-color="#FF7300"/>
</linearGradient>
<linearGradient id="paint1_linear_1_275" x1="82.5811" y1="35.4905" x2="107.432" y2="35.4905" gradientUnits="userSpaceOnUse">
<stop stop-color="#FFD000"/>
<stop offset="1" stop-color="#FF7300"/>
</linearGradient>
<linearGradient id="paint2_linear_1_275" x1="98.9676" y1="11.7935" x2="110.396" y2="39.7776" gradientUnits="userSpaceOnUse">
<stop stop-color="#FFD000"/>
<stop offset="1" stop-color="#FF7300"/>
</linearGradient>
<linearGradient id="paint3_linear_1_275" x1="79.1149" y1="36.6419" x2="99.8075" y2="36.6419" gradientUnits="userSpaceOnUse">
<stop stop-color="#FFD000"/>
<stop offset="1" stop-color="#FF7300"/>
</linearGradient>
<clipPath id="clip0_1_275">
<rect width="118" height="119" fill="white"/>
</clipPath>
</defs>
</svg>
