<svg width="37" height="47" viewBox="0 0 37 47" fill="none" xmlns="http://www.w3.org/2000/svg">
<path d="M8.39291 26.3459H21.8215V29.6391H8.39291V26.3459ZM8.39291 18.1128H28.5358V21.406H8.39291V18.1128ZM8.39291 34.579H16.7858V37.8723H8.39291V34.579Z" fill="white"/>
<path d="M33.5714 4.93987H28.5357V3.29324C28.5357 2.41982 28.182 1.58217 27.5524 0.964569C26.9228 0.346966 26.0689 0 25.1786 0H11.75C10.8596 0 10.0057 0.346966 9.37614 0.964569C8.74656 1.58217 8.39286 2.41982 8.39286 3.29324V4.93987H3.35714C2.46677 4.93987 1.61287 5.28683 0.983284 5.90443C0.353698 6.52204 0 7.35969 0 8.23311V42.8122C0 43.6856 0.353698 44.5232 0.983284 45.1408C1.61287 45.7585 2.46677 46.1054 3.35714 46.1054H33.5714C34.4618 46.1054 35.3157 45.7585 35.9453 45.1408C36.5749 44.5232 36.9286 43.6856 36.9286 42.8122V8.23311C36.9286 7.35969 36.5749 6.52204 35.9453 5.90443C35.3157 5.28683 34.4618 4.93987 33.5714 4.93987ZM11.75 3.29324H25.1786V9.87973H11.75V3.29324ZM33.5714 42.8122H3.35714V8.23311H8.39286V13.173H28.5357V8.23311H33.5714V42.8122Z" fill="white"/>
</svg>
