<svg width="75" height="75" viewBox="0 0 75 75" fill="none" xmlns="http://www.w3.org/2000/svg">
<path d="M57.3529 27.0349V40.9884C57.3529 41.6823 57.1205 42.3477 56.7068 42.8384C56.2932 43.329 55.7321 43.6047 55.1471 43.6047H25.1765L30.2353 49.6046C30.452 49.8442 30.6258 50.133 30.7464 50.4539C30.867 50.7749 30.9318 51.1213 30.937 51.4726C30.9423 51.8239 30.8878 52.1728 30.7768 52.4986C30.6659 52.8244 30.5008 53.1203 30.2913 53.3687C30.0818 53.6172 29.8323 53.813 29.5576 53.9446C29.283 54.0762 28.9888 54.1408 28.6926 54.1346C28.3964 54.1284 28.1043 54.0515 27.8337 53.9085C27.5631 53.7655 27.3196 53.5594 27.1176 53.3023L18.2941 42.8372C17.881 42.3467 17.649 41.6817 17.649 40.9884C17.649 40.2951 17.881 39.6301 18.2941 39.1395L27.1176 28.6744C27.5358 28.2123 28.0889 27.9607 28.6604 27.9726C29.2318 27.9846 29.7771 28.2592 30.1812 28.7385C30.5854 29.2179 30.8169 29.8646 30.827 30.5424C30.8371 31.2202 30.6249 31.8761 30.2353 32.3721L25.1765 38.3721H52.9412V27.0349C52.9412 26.341 53.1736 25.6755 53.5873 25.1849C54.0009 24.6942 54.562 24.4186 55.1471 24.4186C55.7321 24.4186 56.2932 24.6942 56.7068 25.1849C57.1205 25.6755 57.3529 26.341 57.3529 27.0349ZM75 6.10465V68.8953C75 70.5144 74.4577 72.0671 73.4925 73.212C72.5272 74.3568 71.218 75 69.8529 75H5.14706C3.78197 75 2.4728 74.3568 1.50754 73.212C0.542278 72.0671 0 70.5144 0 68.8953V6.10465C0 4.4856 0.542278 2.93286 1.50754 1.78801C2.4728 0.643167 3.78197 0 5.14706 0H69.8529C71.218 0 72.5272 0.643167 73.4925 1.78801C74.4577 2.93286 75 4.4856 75 6.10465ZM70.5882 6.10465C70.5882 5.87336 70.5108 5.65154 70.3729 5.48799C70.235 5.32444 70.048 5.23256 69.8529 5.23256H5.14706C4.95205 5.23256 4.76502 5.32444 4.62713 5.48799C4.48923 5.65154 4.41176 5.87336 4.41176 6.10465V68.8953C4.41176 69.1266 4.48923 69.3485 4.62713 69.512C4.76502 69.6756 4.95205 69.7674 5.14706 69.7674H69.8529C70.048 69.7674 70.235 69.6756 70.3729 69.512C70.5108 69.3485 70.5882 69.1266 70.5882 68.8953V6.10465Z" fill="#999D9E"/>
</svg>
