<svg width="35" height="35" viewBox="0 0 35 35" fill="none" xmlns="http://www.w3.org/2000/svg">
<path d="M0 10C0 4.47715 4.47715 0 10 0H25C30.5228 0 35 4.47715 35 10V25C35 30.5228 30.5228 35 25 35H10C4.47715 35 0 30.5228 0 25V10Z" fill="#768DC7"/>
<path d="M27.8936 24.6381C28.2451 25.0287 28.2451 25.6146 27.8545 25.9662L26.7607 27.0599C26.4092 27.4506 25.8232 27.4506 25.4326 27.0599L21.5654 23.1927C21.3701 22.9974 21.292 22.7631 21.292 22.5287V21.8646C19.8857 22.9584 18.167 23.5834 16.292 23.5834C11.7998 23.5834 8.16699 19.9506 8.16699 15.4584C8.16699 11.0052 11.7998 7.33337 16.292 7.33337C20.7451 7.33337 24.417 11.0052 24.417 15.4584C24.417 17.3724 23.7529 19.0912 22.6982 20.4584H23.3232C23.5576 20.4584 23.792 20.5756 23.9873 20.7318L27.8936 24.6381ZM16.292 20.4584C19.0264 20.4584 21.292 18.2318 21.292 15.4584C21.292 12.724 19.0264 10.4584 16.292 10.4584C13.5186 10.4584 11.292 12.724 11.292 15.4584C11.292 18.2318 13.5186 20.4584 16.292 20.4584Z" fill="white"/>
</svg>
