<svg width="44" height="44" viewBox="0 0 44 44" fill="none" xmlns="http://www.w3.org/2000/svg">
<path d="M43.3256 38.83L33.3511 29.0453C35.7525 25.9092 37.0488 22.092 37.0445 18.1697C37.0445 8.15099 28.7353 0 18.5222 0C8.30914 0 0 8.15099 0 18.1697C0 28.1884 8.30914 36.3394 18.5222 36.3394C22.5206 36.3437 26.4119 35.072 29.6089 32.7163L39.5834 42.501C40.0884 42.9437 40.7469 43.1801 41.4239 43.1615C42.1008 43.1429 42.7449 42.8708 43.2237 42.401C43.7026 41.9313 43.98 41.2995 43.999 40.6354C44.0179 39.9713 43.777 39.3253 43.3256 38.83ZM5.29207 18.1697C5.29207 15.6028 6.068 13.0936 7.52175 10.9593C8.9755 8.82503 11.0418 7.16156 13.4593 6.17926C15.8768 5.19696 18.5369 4.93994 21.1033 5.44072C23.6697 5.94149 26.0271 7.17756 27.8774 8.99261C29.7277 10.8077 30.9877 13.1202 31.4982 15.6377C32.0087 18.1553 31.7467 20.7648 30.7453 23.1363C29.744 25.5078 28.0482 27.5347 25.8725 28.9608C23.6968 30.3869 21.1389 31.148 18.5222 31.148C15.0147 31.1439 11.652 29.7752 9.17174 27.3422C6.69152 24.9092 5.29628 21.6105 5.29207 18.1697Z" fill="white"/>
</svg>
