<svg width="120" height="107" viewBox="0 0 120 107" fill="none" xmlns="http://www.w3.org/2000/svg">
<path d="M90.2024 105.121C90.2024 106.156 89.3584 107 88.3238 107C87.2893 107 86.4453 106.156 86.4453 105.121C86.4453 104.087 87.2893 103.243 88.3238 103.243C89.3584 103.243 90.2024 104.087 90.2024 105.121Z" fill="#3D55A5"/>
<path d="M98.4855 105.121C98.4855 106.156 97.6415 107 96.607 107C95.5724 107 94.7285 106.156 94.7285 105.121C94.7285 104.087 95.5724 103.243 96.607 103.243C97.6415 103.243 98.4855 104.087 98.4855 105.121Z" fill="#3D55A5"/>
<path d="M106.769 105.121C106.769 106.156 105.925 107 104.89 107C103.856 107 103.012 106.156 103.012 105.121C103.012 104.087 103.856 103.243 104.89 103.243C105.925 103.243 106.769 104.087 106.769 105.121Z" fill="#3D55A5"/>
<path d="M98.6965 58.5876H94.5175V104.107H98.6965V58.5876Z" fill="#3D55A5"/>
<path d="M100.31 72.3361H92.8976V79.5438H100.31V72.3361Z" fill="#263C94"/>
<path d="M99.3975 75.1198H93.8096V82.3208H99.3975V75.1198Z" fill="#263C94"/>
<path d="M107.83 103.869H85.37C85.37 102.487 86.493 101.364 87.8746 101.364H105.319C106.701 101.364 107.824 102.487 107.824 103.869H107.83Z" fill="#2B2B76"/>
<path d="M117.441 39.0811L117.162 40.7213L112.003 72.3225H89.2019L94.1364 42.0077C94.4222 40.3198 95.8924 39.0811 97.6007 39.0811H117.441Z" fill="#768DC7"/>
<path d="M117.162 40.7214L112.003 72.3225H90.4746L95.1301 43.648C95.4159 41.9601 96.8861 40.7282 98.5944 40.7282H117.162V40.7214Z" fill="#3D55A5"/>
<path d="M114.235 72.9622L110.049 72.3225L115.181 40.8507C115.358 39.8297 116.243 39.0811 117.277 39.0811C118.598 39.0811 119.598 40.2653 119.374 41.5653L114.235 72.9622Z" fill="#263C94"/>
<path d="M73.7314 75.2832H100.316C101.378 75.2832 102.236 74.4256 102.236 73.3639C102.236 72.3021 101.378 71.4445 100.316 71.4445H73.7314C72.6696 71.4445 71.8121 72.3021 71.8121 73.3639C71.8121 74.4256 72.6696 75.2832 73.7314 75.2832Z" fill="#3D55A5"/>
<path d="M97.1515 75.2832H112.704C113.765 75.2832 114.623 74.4256 114.623 73.3639C114.623 72.3021 113.765 71.4445 112.704 71.4445H97.1515C96.0897 71.4445 95.2322 72.3021 95.2322 73.3639C95.2322 74.4256 96.0897 75.2832 97.1515 75.2832Z" fill="#263C94"/>
<path d="M112.071 45.7035H97.4986C97.206 45.7035 96.9745 45.472 96.9745 45.1794C96.9745 44.8867 97.2128 44.6553 97.4986 44.6553H112.071C112.363 44.6553 112.595 44.8867 112.595 45.1794C112.595 45.4652 112.363 45.7035 112.071 45.7035Z" fill="#263C94"/>
<path d="M110.607 52.4961H96.0353C95.7426 52.4961 95.5112 52.2647 95.5112 51.972C95.5112 51.6794 95.7494 51.4479 96.0353 51.4479H110.607C110.9 51.4479 111.131 51.6862 111.131 51.972C111.131 52.2647 110.893 52.4961 110.607 52.4961Z" fill="#263C94"/>
<path d="M109.151 59.2887H94.5788C94.2861 59.2887 94.0547 59.0572 94.0547 58.7646C94.0547 58.4787 94.2861 58.2405 94.5788 58.2405H109.151C109.443 58.2405 109.675 58.4787 109.675 58.7646C109.675 59.0572 109.437 59.2887 109.151 59.2887Z" fill="#263C94"/>
<path d="M60.1327 97.6756H55.661C54.8647 101.092 52.4757 103.345 48.3988 103.719C46.003 103.937 46.1936 106.884 46.1936 106.884H59.452C59.452 106.884 61.0515 105.503 59.3568 102.522C58.9416 101.793 60.1259 97.6756 60.1259 97.6756H60.1327Z" fill="#F9BCBE"/>
<path d="M48.4056 103.719C46.0098 103.937 46.2004 106.884 46.2004 106.884H59.4588C59.4588 106.884 61.0583 105.503 59.3636 102.522C58.4651 103.032 56.1783 103.57 53.3401 101.773C52.2443 102.658 50.0663 103.57 48.4056 103.719Z" fill="#121640"/>
<path d="M86.9285 36.3245C85.6013 39.5235 76.025 49.6374 74.2622 51.5772C72.1387 53.9117 67.0545 51.8767 67.9189 49.1202C68.6811 46.6836 78.87 33.3366 80.3674 32.1047C83.0626 29.8791 88.5961 32.3225 86.9353 36.3245H86.9285Z" fill="#F9BCBE"/>
<path d="M91.094 57.8049C96.9541 60.262 92.4757 69.7634 84.914 72.2272C77.3523 74.6911 68.8922 73.1529 62.3107 73.6293C60.439 73.7654 55.6678 70.655 59.173 66.8231C62.6782 62.9913 83.1716 54.4835 91.0872 57.8049H91.094Z" fill="#F5F7FC"/>
<path d="M59.4044 66.7142C53.8846 72.1251 55.2662 94.7421 53.9322 98.7645C53.9322 98.7645 57.5395 100.623 61.2965 101.133C61.2965 101.133 67.6195 74.6162 67.8849 71.6079C68.4498 65.3122 61.2217 64.9378 59.4044 66.7142Z" fill="#F5F7FC"/>
<path d="M82.8924 57.8185C82.8924 57.8185 66.9115 65.2168 65.2576 69.3142C63.6037 73.4115 63.8487 85.3768 61.2964 101.126L67.5377 73.6157L77.9511 73.4047L89.6509 62.0315L82.8856 57.8049L82.8924 57.8185Z" fill="#D4DCF0"/>
<path d="M104.958 57.805C107.218 62.3787 105.72 68.7697 98.1587 71.2404C90.597 73.7042 82.1846 73.1597 75.0857 73.6361C73.214 73.7586 67.7827 70.7707 71.2879 66.9389C74.7931 63.107 101.153 50.114 104.958 57.8118V57.805Z" fill="#F5F7FC"/>
<path d="M82.3685 44.0428C85.5198 40.5308 87.8815 35.6916 88.6166 33.9424C90.3726 29.7838 85.4313 26.7346 82.6748 28.9534C81.9873 29.5047 77.0665 33.0916 74.3916 36.9507C75.8958 40.5376 81.6811 43.859 82.3685 44.0428Z" fill="url(#paint0_linear_1_73)"/>
<path d="M97.7572 59.2887C97.7572 59.2887 104.407 61.3918 100.895 65.3598C97.3896 69.321 81.7762 73.1597 81.7762 73.1597C81.7762 73.1597 101.194 74.5073 104.795 66.2242C107.919 59.0436 103.447 55.7767 103.447 55.7767L97.7572 59.2887Z" fill="#D4DCF0"/>
<path d="M87.4254 27.5446C87.4254 27.5446 84.5328 27.2928 83.0082 28.8378C81.4836 30.3828 78.9109 37.1413 79.8433 44.9276C80.769 52.7139 79.258 57.5667 79.258 57.5667C79.258 57.5667 89.6442 62.7054 106.34 59.1934C106.34 59.1934 107.088 37.223 103.134 29.532C101.875 27.0886 95.9944 27.0818 95.1028 27.0069C94.2112 26.9253 87.4322 27.5446 87.4322 27.5446H87.4254Z" fill="url(#paint1_linear_1_73)"/>
<path d="M88.1469 24.1347C88.1469 24.1347 88.6098 26.83 87.7658 27.1839C86.9218 27.5378 85.7852 27.6603 85.7852 27.6603C85.7852 27.6603 90.4134 34.3576 95.6746 27.041C95.6746 27.041 94.1023 27.0614 93.6191 26.4284C93.1359 25.7955 92.8296 22.6578 93.0746 20.5819L88.1469 24.1347Z" fill="#F9BCBE"/>
<path d="M93.6191 26.4284C93.1358 25.7955 92.8296 22.6578 93.0746 20.5819L90.2636 22.6033C90.8217 23.1002 91.6657 24.4955 91.6385 24.5839C92.3667 25.9588 92.7819 27.8918 91.3526 28.9535C90.2568 29.7703 88.7935 29.7294 87.4459 29.3279C89.2563 30.6823 92.3327 31.676 95.6745 27.041C95.6745 27.041 94.1023 27.0614 93.6191 26.4284Z" fill="#DA90A7"/>
<path d="M106.49 31.6147C109.008 33.9901 115.052 46.5475 116.236 48.882C117.659 51.693 114.977 54.8715 112.397 53.5647C110.206 52.4485 100.827 38.0874 100.207 36.2565C99.0913 32.9419 103.338 28.6472 106.49 31.6215V31.6147Z" fill="#F9BCBE"/>
<path d="M113.03 54.0547C109.722 54.4494 97.7027 52.006 95.4227 51.584C92.673 51.0804 91.9515 46.7584 94.8169 46.9626C97.587 47.16 113.411 47.3029 114.97 47.827C117.788 48.7663 117.168 53.5646 113.03 54.0547Z" fill="#F9BCBE"/>
<path d="M71.6011 53.0202C68.3545 53.7417 56.1442 52.5097 53.8369 52.3192C51.0532 52.0946 49.9029 47.8679 52.7751 47.7795C55.5521 47.6978 71.3084 46.2685 72.9146 46.6292C75.8073 47.2894 75.6712 52.115 71.6079 53.0202H71.6011Z" fill="#F9BCBE"/>
<path d="M111.417 37.0188C108.701 33.1597 104.522 29.7634 102.984 28.654C99.3226 26.0064 95.2388 30.1378 96.7838 33.323C97.1718 34.1194 99.2817 38.5162 102.44 41.9873C106.278 41.3271 111.09 37.645 111.424 37.0188H111.417Z" fill="url(#paint2_linear_1_73)"/>
<path d="M85.2883 49.236C86.3501 48.5417 87.3574 47.8407 86.5202 48.2967C85.4449 48.882 84.2878 47.9292 85.3564 47.3506C86.6904 46.6224 88.1265 45.6695 89.6443 45.336C91.2846 44.9753 94.5652 47.1601 96.1374 47.303C96.7772 47.3575 96.3143 50.3522 95.8175 50.5427C94.1636 51.1961 92.2647 50.2841 92.006 50.3726C91.3458 50.815 91.0464 51.1417 90.4746 51.6181C89.7464 52.2307 88.249 51.6181 88.9773 51.0124C89.4401 50.6244 89.2087 50.4611 88.5281 50.992C87.6637 51.6658 86.1663 50.9443 87.0239 50.2773C87.3846 49.9914 87.4391 49.7805 86.9218 50.1208C85.8737 50.8082 84.247 49.9166 85.2883 49.2292V49.236Z" fill="#F9BCBE"/>
<path d="M51.1484 102.991C51.1484 102.991 53.4149 101.644 53.6939 100.459C53.9662 99.275 55.375 100.35 55.518 100.684C55.6541 101.017 53.8573 102.964 51.1552 102.998L51.1484 102.991Z" fill="#121640"/>
<path d="M89.7328 97.8048C88.9773 97.4441 87.6092 93.3808 87.6092 93.3808L83.9339 95.9263C85.2271 99.1865 84.5465 102.399 81.4156 105.026C80.98 105.394 80.7554 105.802 80.6601 106.21H85.2747L92.3055 101.33C92.3055 101.33 92.8296 99.2818 89.7396 97.798L89.7328 97.8048Z" fill="#F9BCBE"/>
<path d="M92.2986 101.337L90.9374 102.277L84.6416 106.639L80.5783 106.782C80.5647 106.19 80.7621 105.564 81.4087 105.026C82.0825 104.454 82.7631 103.631 83.3076 102.773C83.7841 102.018 84.172 101.249 84.349 100.616C87.7044 100.48 89.2766 98.7305 89.7259 97.798C92.8159 99.2818 92.2918 101.33 92.2918 101.33L92.2986 101.337Z" fill="#121640"/>
<path d="M90.9373 102.277L84.6416 106.639L79.6118 106.864C79.6118 106.864 79.3124 103.924 81.7013 103.617C82.5657 103.502 84.9071 101.936 85.4175 101.494C87.8541 102.916 89.8484 102.705 90.9441 102.277H90.9373Z" fill="#121640"/>
<path d="M83.2531 102.875C83.2531 102.875 84.3489 100.48 83.8997 99.343C83.4505 98.2132 85.2201 98.2949 85.5196 98.4854C85.8191 98.676 85.4515 101.303 83.2531 102.875Z" fill="#121640"/>
<path d="M70.1241 68.5587C68.0754 76.0114 82.2663 94.0683 83.1307 98.2132C83.1307 98.2132 87.1599 96.607 89.3856 94.218C89.3856 94.218 81.1977 71.2539 79.9182 68.5178C77.2433 62.7938 70.8047 66.1016 70.1309 68.5587H70.1241Z" fill="#F5F7FC"/>
<path d="M86.9899 17.4442L84.2606 17.0971L84.2947 16.8112L87.0239 17.1584L86.9899 17.4442Z" fill="#121640"/>
<path d="M95.9808 16.6003C95.94 16.3689 94.3746 15.0961 94.2044 15.1778C94.1772 15.1778 94.2929 20.5683 94.0411 21.0583C93.8573 21.419 93.5783 22.2358 94.0955 22.44C94.5788 22.6305 95.1845 22.3583 95.45 21.9567C97.1515 19.3976 96.0829 17.1924 95.9808 16.5935V16.6003Z" fill="#121640"/>
<path d="M85.7852 13.3401V21.4871C85.7852 23.6923 87.7318 25.4755 90.1343 25.4755C92.5369 25.4755 94.4835 23.6923 94.4835 21.4871V21.3033C94.4835 21.3033 96.7159 21.7866 96.7159 19.3431C96.7159 16.8997 95.3138 17.24 95.3138 17.24V13.3333H85.792L85.7852 13.3401Z" fill="#F9BCBE"/>
<path d="M95.307 17.24V12.2783H91.9243C91.9243 12.2783 91.9243 14.0615 91.9243 14.0887V22.542C91.9243 24.019 90.495 25.2169 89.0113 25.1692C88.5484 25.1556 88.1264 25.0263 87.7589 24.8221C88.4395 25.2305 89.2495 25.4755 90.1275 25.4755C92.5301 25.4755 94.4766 23.6923 94.4766 21.4871V21.3033C94.4766 21.3033 96.7091 21.7865 96.7091 19.3431C96.7091 16.8997 95.307 17.24 95.307 17.24Z" fill="#DA90A7"/>
<path d="M95.4431 9.28358C95.4431 9.28358 95.4431 9.26997 95.4431 9.26316C94.2588 6.80613 90.2636 6.92184 89.0861 7.64329C88.5689 7.26215 86.8265 6.67681 85.8396 7.92234C83.8317 7.96999 83.192 9.35845 83.0695 9.99823C82.7836 11.516 83.5391 13.3197 85.1249 13.7008C86.1935 13.9594 87.3982 14.1092 88.2149 13.3673C89.0589 14.0819 91.2437 13.7689 92.2374 13.3401C92.6866 15.1029 93.0746 18.5876 94.041 18.5808C94.5175 18.5808 95.4976 17.7913 95.307 17.24C97.7164 16.8453 97.764 9.97781 95.4431 9.28358Z" fill="#121640"/>
<path d="M86.3092 19.1458C86.3092 19.1458 86.2411 19.1458 86.2139 19.1458L84.6552 19.0233C84.3626 19.0028 84.1312 18.717 84.1312 18.3835V16.961C84.1312 16.6071 84.383 16.3144 84.6893 16.3144H87.3505C87.507 16.3144 87.6568 16.3893 87.7657 16.5254C87.895 16.6887 87.9426 16.9201 87.8882 17.1311L87.7044 17.8934C87.5206 18.6421 86.9557 19.1458 86.3092 19.1458ZM86.2343 18.8531C86.7788 18.8939 87.2688 18.472 87.4254 17.8254L87.6091 17.0631C87.6432 16.9338 87.6091 16.7976 87.5411 16.7023C87.5138 16.6615 87.4458 16.6003 87.3505 16.6003H84.6893C84.5395 16.6003 84.417 16.7636 84.417 16.9542V18.3767C84.417 18.5604 84.5327 18.7238 84.6757 18.7374L86.2343 18.8531Z" fill="#121640"/>
<path d="M90.3997 19.1458C89.7531 19.1458 89.1814 18.6421 89.0044 17.8935L88.8207 17.1312C88.7662 16.9134 88.8206 16.6888 88.9432 16.5254C89.0453 16.3893 89.2018 16.3144 89.3583 16.3144H92.0196C92.3258 16.3144 92.5777 16.6003 92.5777 16.961V18.3835C92.5777 18.7238 92.3463 19.0029 92.0536 19.0233L90.495 19.1458C90.495 19.1458 90.4269 19.1458 90.3997 19.1458ZM89.3583 16.6003C89.263 16.6003 89.2018 16.6615 89.1678 16.7024C89.0929 16.7977 89.0657 16.9338 89.0997 17.0631L89.2835 17.8254C89.44 18.472 89.9437 18.9008 90.4746 18.8531L92.0332 18.7374C92.1761 18.7238 92.2918 18.5673 92.2918 18.3767V16.9542C92.2918 16.7568 92.1693 16.6003 92.0196 16.6003H89.3583Z" fill="#121640"/>
<path d="M87.8065 17.2264L87.6908 16.9678C87.6908 16.9678 88.5007 16.6139 89.0384 16.9814L88.8819 17.2196C88.4735 16.9406 87.8201 17.2264 87.8133 17.2332L87.8065 17.2264Z" fill="#121640"/>
<path d="M92.4394 16.8107L92.426 17.0962L96.1178 17.2684L96.1311 16.9828L92.4394 16.8107Z" fill="#121640"/>
<path d="M55.2457 48.1401C53.6735 47.9699 50.4337 45.7307 48.7866 46.0642C47.2621 46.3705 46.9626 47.2145 45.615 47.9155C44.8731 48.3034 44.6757 49.0045 44.9956 49.4333C44.8391 49.6375 44.2741 49.7668 44.1312 50.216C43.8862 50.9647 44.6757 51.3118 45.7375 50.638C46.2616 50.3113 45.1181 51.2301 44.7506 51.5024C43.8794 52.1557 45.3699 52.9044 46.2411 52.2442C46.6699 51.9243 47.3778 51.4819 47.3914 51.5772C47.3982 51.6317 46.8673 52.1285 46.6903 52.2715C45.9553 52.8704 47.439 53.5034 48.1741 52.9044C48.7526 52.4348 50.3997 51.5704 51.0667 51.1416C51.1892 51.1008 51.6997 51.305 52.3871 51.4479C52.1217 51.7882 51.6589 51.9311 51.2437 52.1149C50.9238 52.2578 50.6856 52.5437 50.8557 52.9044C51.0395 53.2924 51.4547 53.2788 51.8086 53.2175C52.3191 53.129 52.7819 53.1903 53.2175 52.85C53.5442 52.5913 54.6059 51.4819 54.8782 51.3798C55.3818 51.1961 55.8923 48.2082 55.2593 48.1469L55.2457 48.1401Z" fill="#F9BCBE"/>
<path d="M6.66324 53.6601H3.9816V106.987H6.66324V53.6601Z" fill="#768DC7"/>
<path d="M3.24653 106.98H3.9816L3.9816 53.6532H3.24653L3.24653 106.98Z" fill="#89A3D4"/>
<path d="M29.2462 53.6601H26.5645V106.987H29.2462V53.6601Z" fill="#768DC7"/>
<path d="M25.8294 106.98H26.5645L26.5645 53.6532H25.8294L25.8294 106.98Z" fill="#89A3D4"/>
<path d="M70.0833 53.66H5.15228V72.8262H70.0833V53.66Z" fill="#3D55A5"/>
<path d="M70.0833 53.66H5.15228V57.0971H70.0833V53.66Z" fill="#263C94"/>
<path d="M73.5 53.6601H70.8183V106.987H73.5V53.6601Z" fill="#263C94"/>
<path d="M70.0833 106.98H70.8183V53.6532H70.0833V106.98Z" fill="#768DC7"/>
<path d="M100.146 53.6601H97.4646V106.987H100.146V53.6601Z" fill="#263C94"/>
<path d="M96.7363 106.98H97.4714V53.6532H96.7363V106.98Z" fill="#768DC7"/>
<path d="M102.004 50.9511H0V54.1772H102.004V50.9511Z" fill="#768DC7"/>
<path d="M102.011 50.9512H67.1771V54.1773H102.011V50.9512Z" fill="#3D55A5"/>
<path d="M12.0945 48.6506C12.217 48.6506 12.3395 48.6234 12.4552 48.5621C12.8227 48.3648 12.9589 47.9087 12.7547 47.5412L4.982 33.2482L15.2525 19.9625L22.331 25.2714C22.6645 25.5232 23.1341 25.4551 23.3859 25.1216C23.6378 24.7881 23.5697 24.3185 23.2362 24.0667L15.5656 18.3086C15.2389 18.0636 14.7693 18.1249 14.5175 18.4516L3.49145 32.7173C3.30768 32.9556 3.28046 33.2754 3.42339 33.5409L11.4343 48.2695C11.5704 48.5213 11.829 48.6642 12.0945 48.6642V48.6506Z" fill="#121640"/>
<path d="M22.4603 27.919L26.054 24.6997L24.7131 23.2091C23.8215 22.2154 22.2969 22.1337 21.31 23.0253C20.3163 23.917 20.2347 25.4415 21.1263 26.4284L22.4671 27.919H22.4603Z" fill="#121640"/>
<path d="M32.5607 27.5175L24.5566 34.6912L24.5362 34.6708L24.4137 34.5346L21.5755 31.363C20.6566 30.3352 20.2006 29.0557 20.2006 27.7761C20.2006 26.619 20.575 25.462 21.3032 24.5091C21.3781 24.4138 21.453 24.3254 21.5346 24.2301C21.6708 24.0735 21.8137 23.9238 21.977 23.7809C24.189 21.8003 27.5853 21.984 29.5659 24.1892L32.547 27.5107L32.5607 27.5175Z" fill="#3D55A5"/>
<path d="M30.7434 28.5519C31.1041 28.3001 31.4649 28.0347 31.8052 27.7488L28.9942 24.618C27.1906 22.6101 24.2299 22.2698 22.0519 23.7195C21.9702 23.8148 21.8886 23.9033 21.8205 23.9986C23.876 23.141 26.3262 23.6175 27.8916 25.3666L30.7502 28.5519H30.7434Z" fill="#768DC7"/>
<path d="M24.5634 34.6911C25.1215 35.3173 27.3675 34.2215 29.5796 32.2341C31.7848 30.2535 33.1256 28.1368 32.5607 27.5106C32.1523 27.0546 30.8455 27.5106 29.3073 28.5656C28.7356 28.9535 28.1366 29.4299 27.5445 29.9608C26.9456 30.4917 26.4147 31.043 25.9655 31.5671C24.754 32.976 24.155 34.2283 24.5634 34.6843V34.6911Z" fill="#121640"/>
<path d="M25.9655 31.5739C26.8026 32.4043 28.1571 32.4451 29.0487 31.642C29.9403 30.8456 30.0492 29.4912 29.3141 28.5724C28.7424 28.9603 28.1435 29.4368 27.5513 29.9677C26.9524 30.4985 26.4215 31.0498 25.9723 31.5739H25.9655Z" fill="url(#paint3_linear_1_73)"/>
<path d="M13.7279 18.9076C13.7279 18.1453 14.3473 17.5259 15.1096 17.5259C15.8719 17.5259 16.4913 18.1453 16.4913 18.9076C16.4913 19.6699 15.8719 20.2892 15.1096 20.2892C14.3473 20.2892 13.7279 19.6699 13.7279 18.9076Z" fill="#768DC7"/>
<path d="M14.3201 18.9076C14.3201 18.472 14.674 18.1181 15.1096 18.1181C15.5452 18.1181 15.9059 18.472 15.9059 18.9076C15.9059 19.3432 15.552 19.7039 15.1096 19.7039C14.6672 19.7039 14.3201 19.35 14.3201 18.9076Z" fill="#3D55A5"/>
<path d="M3.06946 33.4048C3.06946 32.6425 3.68882 32.0231 4.45111 32.0231C5.21341 32.0231 5.83277 32.6425 5.83277 33.4048C5.83277 34.1671 5.21341 34.7864 4.45111 34.7864C3.68882 34.7864 3.06946 34.1671 3.06946 33.4048Z" fill="#768DC7"/>
<path d="M3.66162 33.4048C3.66162 32.9692 4.01555 32.6085 4.45795 32.6085C4.90035 32.6085 5.25427 32.9624 5.25427 33.4048C5.25427 33.8472 4.90035 34.1943 4.45795 34.1943C4.01555 34.1943 3.66162 33.8404 3.66162 33.4048Z" fill="#3D55A5"/>
<path d="M1.91922 50.9511H21.521C21.521 49.1679 20.0713 47.7182 18.2881 47.7182H5.14535C3.36213 47.7182 1.91241 49.1679 1.91241 50.9511H1.91922Z" fill="#3D55A5"/>
<path d="M73.8607 49.4878H46.1118V50.9511H73.8607V49.4878Z" fill="#263C94"/>
<path d="M73.8607 50.9511H86.6359V50.1275C86.6359 49.7736 86.35 49.4877 85.9961 49.4877H73.8607V50.9511Z" fill="#2B2B76"/>
<path d="M46.8946 49.4878H74.5345L70.8932 32.4723C70.7843 31.9754 70.3691 31.6215 69.8927 31.6215H45.0024C44.0155 31.6215 43.2805 32.5948 43.5051 33.6225L46.8946 49.4878Z" fill="#263C94"/>
<path d="M46.2207 49.4878H73.8607L70.2194 32.4723C70.1105 31.9754 69.6953 31.6215 69.2189 31.6215H43.8045C43.0831 31.6215 42.5522 32.3294 42.7088 33.078L46.2207 49.4878Z" fill="#2B2B76"/>
<path opacity="0.11" d="M57.0698 31.6215L49.2903 49.4878H52.85L60.9221 31.6215H57.0698Z" fill="#F1F5FB"/>
<path opacity="0.11" d="M62.8891 31.6215L55.1028 49.4878H56.4913L64.5634 31.6215H62.8891Z" fill="#F1F5FB"/>
<path d="M45.5402 2.00778L68.3545 0.00676706C69.4163 -0.0817134 70.3556 0.707804 70.4508 1.76957L71.5398 14.15C71.6283 15.2118 70.8388 16.151 69.777 16.2463L55.5929 17.5055L53.66 23.141C53.449 23.7604 52.5846 23.7944 52.326 23.1954L50.0663 17.9819L46.9695 18.2473C45.9009 18.3358 44.9685 17.5463 44.8732 16.4845L43.7842 4.10409C43.6957 3.03552 44.4852 2.10307 45.547 2.00778H45.5402Z" fill="white"/>
<path d="M67.1389 3.92009L47.3889 5.73486L47.4574 6.4804L67.2074 4.66563L67.1389 3.92009Z" fill="#D4DCF0"/>
<path d="M67.5153 7.89842L47.7653 9.7132L47.8338 10.4587L67.5838 8.64396L67.5153 7.89842Z" fill="#D4DCF0"/>
<path d="M67.8781 11.8909L48.1281 13.7057L48.1966 14.4513L67.9466 12.6365L67.8781 11.8909Z" fill="#D4DCF0"/>
<defs>
<linearGradient id="paint0_linear_1_73" x1="98.3805" y1="27.5364" x2="68.187" y2="44.3971" gradientUnits="userSpaceOnUse">
<stop stop-color="#FFD10A"/>
<stop offset="1" stop-color="#F47421"/>
</linearGradient>
<linearGradient id="paint1_linear_1_73" x1="79.2512" y1="43.7161" x2="106.387" y2="43.7161" gradientUnits="userSpaceOnUse">
<stop stop-color="#FFD10A"/>
<stop offset="1" stop-color="#F47421"/>
</linearGradient>
<linearGradient id="paint2_linear_1_73" x1="99.2409" y1="18.4856" x2="108.109" y2="49.1066" gradientUnits="userSpaceOnUse">
<stop stop-color="#FFD10A"/>
<stop offset="1" stop-color="#F47421"/>
</linearGradient>
<linearGradient id="paint3_linear_1_73" x1="30.0535" y1="29.2159" x2="26.7049" y2="32.2204" gradientUnits="userSpaceOnUse">
<stop stop-color="#FFD10A"/>
<stop offset="1" stop-color="#F47421"/>
</linearGradient>
</defs>
</svg>
