<svg width="56" height="27" viewBox="0 0 56 27" fill="none" xmlns="http://www.w3.org/2000/svg">
<mask id="path-1-inside-1_2_732" fill="white">
<path d="M28 13.3176C31.485 13.3176 34.326 10.2717 34.326 6.56561C34.326 2.9017 31.5 0 28 0C24.53 0 21.674 2.94486 21.674 6.59406C21.688 10.2864 24.529 13.3176 28 13.3176ZM11.13 13.6325C14.146 13.6325 16.621 10.9741 16.621 7.71334C16.621 4.5252 14.176 1.9531 11.13 1.9531C8.113 1.9531 5.623 4.56738 5.638 7.74179C5.653 10.9888 8.113 13.6325 11.13 13.6325ZM44.885 13.6325C47.887 13.6325 50.362 10.9888 50.362 7.74179C50.377 4.56738 47.887 1.9531 44.885 1.9531C41.825 1.9531 39.379 4.52422 39.379 7.71334C39.379 10.9741 41.854 13.6325 44.885 13.6325ZM28 11.1477C25.862 11.1477 24.031 9.13672 24.031 6.59406C24.031 4.09455 25.833 2.1699 28.001 2.1699C30.182 2.1699 31.969 4.0661 31.969 6.56463C31.969 9.10827 30.167 11.1477 28 11.1477ZM11.13 11.493C9.343 11.493 7.82 9.81162 7.82 7.74277C7.82 5.71805 9.328 4.09357 11.13 4.09357C12.975 4.09357 14.454 5.68862 14.454 7.71432C14.454 9.81162 12.931 11.493 11.13 11.493ZM44.885 11.493C43.069 11.493 41.546 9.81162 41.546 7.71432C41.546 5.68862 43.025 4.09455 44.885 4.09455C46.686 4.09455 48.18 5.71805 48.18 7.74375C48.18 9.81163 46.671 11.493 44.885 11.493ZM2.987 26.8059H14.483C13.78 26.4184 13.238 25.5561 13.341 24.6801H2.621C2.328 24.6801 2.182 24.5654 2.182 24.2926C2.182 20.7298 6.326 17.3965 11.115 17.3965C12.96 17.3965 14.615 17.8281 16.035 18.6462C16.5061 18.0606 17.064 17.5474 17.69 17.1237C15.801 15.9024 13.531 15.2707 11.115 15.2707C4.979 15.2707 0 19.638 0 24.4221C0 26.0162 0.996 26.8059 2.987 26.8059ZM53.027 26.8059C55.004 26.8059 56 26.0162 56 24.4221C56 19.638 51.02 15.2707 44.885 15.2707C42.469 15.2707 40.213 15.9024 38.31 17.1247C38.969 17.5691 39.51 18.0723 39.98 18.6462C41.385 17.8281 43.054 17.3965 44.885 17.3965C49.674 17.3965 53.818 20.7298 53.818 24.2926C53.818 24.5654 53.686 24.6801 53.393 24.6801H42.673C42.761 25.5561 42.234 26.4184 41.531 26.8059H53.027ZM18.803 26.8059H37.197C39.627 26.8059 40.785 26.0878 40.785 24.5075C40.785 20.7435 35.937 15.2992 28 15.2992C20.048 15.2992 15.2 20.7435 15.2 24.5075C15.2 26.0878 16.358 26.8059 18.803 26.8059ZM18.1 24.6379C17.72 24.6379 17.559 24.5369 17.559 24.2358C17.559 21.8785 21.279 17.469 28 17.469C34.707 17.469 38.427 21.8785 38.427 24.2348C38.427 24.5369 38.28 24.637 37.9 24.637L18.1 24.6379Z"/>
</mask>
<path d="M28 13.3176C31.485 13.3176 34.326 10.2717 34.326 6.56561C34.326 2.9017 31.5 0 28 0C24.53 0 21.674 2.94486 21.674 6.59406C21.688 10.2864 24.529 13.3176 28 13.3176ZM11.13 13.6325C14.146 13.6325 16.621 10.9741 16.621 7.71334C16.621 4.5252 14.176 1.9531 11.13 1.9531C8.113 1.9531 5.623 4.56738 5.638 7.74179C5.653 10.9888 8.113 13.6325 11.13 13.6325ZM44.885 13.6325C47.887 13.6325 50.362 10.9888 50.362 7.74179C50.377 4.56738 47.887 1.9531 44.885 1.9531C41.825 1.9531 39.379 4.52422 39.379 7.71334C39.379 10.9741 41.854 13.6325 44.885 13.6325ZM28 11.1477C25.862 11.1477 24.031 9.13672 24.031 6.59406C24.031 4.09455 25.833 2.1699 28.001 2.1699C30.182 2.1699 31.969 4.0661 31.969 6.56463C31.969 9.10827 30.167 11.1477 28 11.1477ZM11.13 11.493C9.343 11.493 7.82 9.81162 7.82 7.74277C7.82 5.71805 9.328 4.09357 11.13 4.09357C12.975 4.09357 14.454 5.68862 14.454 7.71432C14.454 9.81162 12.931 11.493 11.13 11.493ZM44.885 11.493C43.069 11.493 41.546 9.81162 41.546 7.71432C41.546 5.68862 43.025 4.09455 44.885 4.09455C46.686 4.09455 48.18 5.71805 48.18 7.74375C48.18 9.81163 46.671 11.493 44.885 11.493ZM2.987 26.8059H14.483C13.78 26.4184 13.238 25.5561 13.341 24.6801H2.621C2.328 24.6801 2.182 24.5654 2.182 24.2926C2.182 20.7298 6.326 17.3965 11.115 17.3965C12.96 17.3965 14.615 17.8281 16.035 18.6462C16.5061 18.0606 17.064 17.5474 17.69 17.1237C15.801 15.9024 13.531 15.2707 11.115 15.2707C4.979 15.2707 0 19.638 0 24.4221C0 26.0162 0.996 26.8059 2.987 26.8059ZM53.027 26.8059C55.004 26.8059 56 26.0162 56 24.4221C56 19.638 51.02 15.2707 44.885 15.2707C42.469 15.2707 40.213 15.9024 38.31 17.1247C38.969 17.5691 39.51 18.0723 39.98 18.6462C41.385 17.8281 43.054 17.3965 44.885 17.3965C49.674 17.3965 53.818 20.7298 53.818 24.2926C53.818 24.5654 53.686 24.6801 53.393 24.6801H42.673C42.761 25.5561 42.234 26.4184 41.531 26.8059H53.027ZM18.803 26.8059H37.197C39.627 26.8059 40.785 26.0878 40.785 24.5075C40.785 20.7435 35.937 15.2992 28 15.2992C20.048 15.2992 15.2 20.7435 15.2 24.5075C15.2 26.0878 16.358 26.8059 18.803 26.8059ZM18.1 24.6379C17.72 24.6379 17.559 24.5369 17.559 24.2358C17.559 21.8785 21.279 17.469 28 17.469C34.707 17.469 38.427 21.8785 38.427 24.2348C38.427 24.5369 38.28 24.637 37.9 24.637L18.1 24.6379Z" fill="white"/>
<path d="M21.674 6.59406L18.674 6.59406L18.674 6.60543L21.674 6.59406ZM5.638 7.74179L8.63797 7.72793L8.63797 7.72761L5.638 7.74179ZM50.362 7.74179L47.362 7.72761L47.362 7.7347V7.74179H50.362ZM14.483 26.8059V29.8059L15.9311 24.1786L14.483 26.8059ZM13.341 24.6801L16.3205 25.0305L16.7144 21.6801H13.341V24.6801ZM16.035 18.6462L14.5374 21.2456L16.7626 22.5277L18.3725 20.5267L16.035 18.6462ZM17.69 17.1237L19.3714 19.6083L23.1271 17.0666L19.3188 14.6044L17.69 17.1237ZM11.115 15.2707L11.115 12.2707L11.115 15.2707ZM38.31 17.1247L36.6887 14.6005L32.8537 17.0638L36.6327 19.6121L38.31 17.1247ZM39.98 18.6462L37.6591 20.5471L39.2795 22.5256L41.4896 21.2387L39.98 18.6462ZM42.673 24.6801V21.6801H39.3565L39.688 24.98L42.673 24.6801ZM41.531 26.8059L40.0829 24.1786L41.531 29.8059V26.8059ZM18.1 24.6379L18.1 27.6379L18.1001 27.6379L18.1 24.6379ZM37.9 24.637L37.9 21.637L37.8999 21.637L37.9 24.637ZM28 16.3176C33.3268 16.3176 37.326 11.7373 37.326 6.56561H31.326C31.326 8.80605 29.6432 10.3176 28 10.3176V16.3176ZM37.326 6.56561C37.326 1.34144 33.2518 -3 28 -3V3C29.7482 3 31.326 4.46196 31.326 6.56561H37.326ZM28 -3C22.7663 -3 18.674 1.39686 18.674 6.59406H24.674C24.674 4.49286 26.2937 3 28 3V-3ZM18.674 6.60543C18.6936 11.7611 22.6937 16.3176 28 16.3176V10.3176C26.3643 10.3176 24.6824 8.8117 24.674 6.58268L18.674 6.60543ZM11.13 16.6325C16.008 16.6325 19.621 12.4181 19.621 7.71334H13.621C13.621 9.53005 12.284 10.6325 11.13 10.6325V16.6325ZM19.621 7.71334C19.621 3.00779 15.9689 -1.0469 11.13 -1.0469V4.9531C12.3831 4.9531 13.621 6.0426 13.621 7.71334H19.621ZM11.13 -1.0469C6.3199 -1.0469 2.61581 3.05295 2.63803 7.75596L8.63797 7.72761C8.63019 6.08181 9.9061 4.9531 11.13 4.9531V-1.0469ZM2.63803 7.75564C2.65966 12.4378 6.25329 16.6325 11.13 16.6325V10.6325C9.97271 10.6325 8.64634 9.53979 8.63797 7.72793L2.63803 7.75564ZM44.885 16.6325C49.74 16.6325 53.362 12.4424 53.362 7.74179H47.362C47.362 9.53517 46.034 10.6325 44.885 10.6325V16.6325ZM53.362 7.75596C53.3842 3.0584 49.6853 -1.0469 44.885 -1.0469V4.9531C46.0887 4.9531 47.3698 6.07636 47.362 7.72761L53.362 7.75596ZM44.885 -1.0469C40.0379 -1.0469 36.379 3.00065 36.379 7.71334H42.379C42.379 6.04779 43.6121 4.9531 44.885 4.9531V-1.0469ZM36.379 7.71334C36.379 12.4236 39.9971 16.6325 44.885 16.6325V10.6325C43.7109 10.6325 42.379 9.52456 42.379 7.71334H36.379ZM28 8.1477C27.9043 8.1477 27.6971 8.10412 27.462 7.83803C27.2287 7.57405 27.031 7.14492 27.031 6.59406H21.031C21.031 10.4336 23.8668 14.1477 28 14.1477V8.1477ZM27.031 6.59406C27.031 5.47611 27.7524 5.1699 28.001 5.1699V-0.830103C23.9136 -0.830103 21.031 2.71299 21.031 6.59406H27.031ZM28.001 5.1699C28.2793 5.1699 28.969 5.46594 28.969 6.56463H34.969C34.969 2.66627 32.0847 -0.830103 28.001 -0.830103V5.1699ZM28.969 6.56463C28.969 7.13118 28.7682 7.57194 28.5354 7.8391C28.3046 8.10396 28.1026 8.1477 28 8.1477V14.1477C32.1983 14.1477 34.969 10.3641 34.969 6.56463H28.969ZM11.13 8.493C11.2091 8.493 11.163 8.53091 11.0461 8.39948C10.9306 8.26964 10.82 8.04168 10.82 7.74277H4.82C4.82 11.1295 7.3664 14.493 11.13 14.493V8.493ZM10.82 7.74277C10.82 7.47889 10.9172 7.28846 11.0141 7.18238C11.1106 7.07678 11.1602 7.09357 11.13 7.09357V1.09357C7.42174 1.09357 4.82 4.32212 4.82 7.74277H10.82ZM11.13 7.09357C11.1546 7.09357 11.2032 7.09629 11.277 7.1765C11.3555 7.26167 11.454 7.43662 11.454 7.71432H17.454C17.454 4.26944 14.8599 1.09357 11.13 1.09357V7.09357ZM11.454 7.71432C11.454 8.03697 11.3371 8.27098 11.2238 8.39852C11.1103 8.52646 11.0633 8.493 11.13 8.493V14.493C14.9137 14.493 17.454 11.1226 17.454 7.71432H11.454ZM44.885 8.493C44.9371 8.493 44.8866 8.52044 44.775 8.39509C44.6627 8.26897 44.546 8.03674 44.546 7.71432H38.546C38.546 11.1318 41.0944 14.493 44.885 14.493V8.493ZM44.546 7.71432C44.546 7.43698 44.6442 7.26431 44.7213 7.18083C44.7933 7.10295 44.8455 7.09455 44.885 7.09455V1.09455C41.1495 1.09455 38.546 4.25921 38.546 7.71432H44.546ZM44.885 7.09455C44.852 7.09455 44.8953 7.07543 44.9871 7.17653C45.0806 7.27938 45.18 7.47112 45.18 7.74375H51.18C51.18 4.33935 48.608 1.09455 44.885 1.09455V7.09455ZM45.18 7.74375C45.18 8.04961 45.0678 8.27888 44.9553 8.40611C44.8424 8.53366 44.8024 8.493 44.885 8.493V14.493C48.663 14.493 51.18 11.1122 51.18 7.74375H45.18ZM2.987 29.8059H14.483V23.8059H2.987V29.8059ZM15.9311 24.1786C16.0963 24.2696 16.1765 24.3703 16.2233 24.4533C16.2747 24.5445 16.3543 24.7429 16.3205 25.0305L10.3615 24.3298C10.0952 26.5951 11.4293 28.5483 13.0349 29.4332L15.9311 24.1786ZM13.341 21.6801H2.621V27.6801H13.341V21.6801ZM2.621 21.6801C2.7741 21.6801 3.52534 21.6939 4.24585 22.3125C5.06525 23.016 5.182 23.9088 5.182 24.2926H-0.818C-0.818 24.9492 -0.628251 26.0358 0.337397 26.8648C1.20416 27.609 2.1749 27.6801 2.621 27.6801V21.6801ZM5.182 24.2926C5.182 23.7008 5.55349 22.7691 6.70103 21.8714C7.81399 21.0008 9.39813 20.3965 11.115 20.3965V14.3965C8.04287 14.3965 5.16051 15.4588 3.00422 17.1456C0.88251 18.8053 -0.818 21.3216 -0.818 24.2926H5.182ZM11.115 20.3965C12.4808 20.3965 13.6115 20.7122 14.5374 21.2456L17.5326 16.0468C15.6185 14.944 13.4392 14.3965 11.115 14.3965V20.3965ZM18.3725 20.5267C18.6552 20.1753 18.9915 19.8654 19.3714 19.6083L16.0086 14.6392C15.1365 15.2294 14.3571 15.9458 13.6975 16.7657L18.3725 20.5267ZM19.3188 14.6044C16.8997 13.0404 14.0531 12.2707 11.115 12.2707V18.2707C13.0089 18.2707 14.7023 18.7645 16.0612 19.6431L19.3188 14.6044ZM11.115 12.2707C3.83352 12.2707 -3 17.5123 -3 24.4221H3C3 21.7637 6.12448 18.2707 11.115 18.2707L11.115 12.2707ZM-3 24.4221C-3 25.8817 -2.51041 27.4523 -1.12255 28.5581C0.134221 29.5594 1.67591 29.8059 2.987 29.8059V23.8059C2.67762 23.8059 2.51095 23.7742 2.4488 23.7577C2.39229 23.7427 2.47849 23.7557 2.6163 23.8655C2.76837 23.9866 2.88794 24.1503 2.95519 24.3114C3.01466 24.4538 3 24.5135 3 24.4221H-3ZM53.027 29.8059C54.3352 29.8059 55.874 29.5578 57.1283 28.5549C58.511 27.4494 59 25.8811 59 24.4221H53C53 24.5134 52.9854 24.4546 53.0443 24.3131C53.1109 24.1533 53.2296 23.9901 53.3814 23.8687C53.5193 23.7584 53.6067 23.7445 53.5533 23.7587C53.4942 23.7744 53.3314 23.8059 53.027 23.8059V29.8059ZM59 24.4221C59 17.5121 52.1653 12.2707 44.885 12.2707V18.2707C49.8747 18.2707 53 21.7638 53 24.4221H59ZM44.885 12.2707C41.9412 12.2707 39.1136 13.0431 36.6887 14.6005L39.9313 19.6489C41.3124 18.7618 42.9968 18.2707 44.885 18.2707V12.2707ZM36.6327 19.6121C37.0414 19.8876 37.3675 20.191 37.6591 20.5471L42.3009 16.7453C41.6525 15.9537 40.8966 15.2506 39.9873 14.6374L36.6327 19.6121ZM41.4896 21.2387C42.39 20.7144 43.5281 20.3965 44.885 20.3965V14.3965C42.5799 14.3965 40.38 14.9417 38.4704 16.0537L41.4896 21.2387ZM44.885 20.3965C46.6019 20.3965 48.186 21.0008 49.299 21.8714C50.4465 22.7691 50.818 23.7008 50.818 24.2926H56.818C56.818 21.3216 55.1175 18.8053 52.9958 17.1456C50.8395 15.4588 47.9571 14.3965 44.885 14.3965V20.3965ZM50.818 24.2926C50.818 23.9925 50.8926 23.0945 51.7064 22.3607C52.4489 21.6911 53.2464 21.6801 53.393 21.6801V27.6801C53.8326 27.6801 54.8426 27.6118 55.7244 26.8166C56.6774 25.9573 56.818 24.8655 56.818 24.2926H50.818ZM53.393 21.6801H42.673V27.6801H53.393V21.6801ZM39.688 24.98C39.6625 24.7258 39.7309 24.5503 39.7795 24.4633C39.8239 24.3837 39.907 24.2755 40.0829 24.1786L42.9791 29.4332C44.6234 28.527 45.8782 26.573 45.658 24.3803L39.688 24.98ZM41.531 29.8059H53.027V23.8059H41.531V29.8059ZM18.803 29.8059H37.197V23.8059H18.803V29.8059ZM37.197 29.8059C38.5952 29.8059 40.191 29.6204 41.5115 28.7812C43.0971 27.7734 43.785 26.1648 43.785 24.5075H37.785C37.785 24.537 37.7805 24.3937 37.8893 24.1787C38.0068 23.9467 38.1742 23.793 38.293 23.7174C38.3864 23.6581 38.3829 23.6887 38.1822 23.7297C37.9842 23.7702 37.6675 23.8059 37.197 23.8059V29.8059ZM43.785 24.5075C43.785 21.4514 41.9246 18.3769 39.2862 16.1845C36.5468 13.9081 32.6732 12.2992 28 12.2992V18.2992C31.2638 18.2992 33.7827 19.4124 35.4515 20.7992C37.2214 22.2699 37.785 23.7996 37.785 24.5075H43.785ZM28 12.2992C23.3207 12.2992 19.4435 13.9072 16.7016 16.1837C14.0608 18.3763 12.2 21.451 12.2 24.5075H18.2C18.2 23.8 18.7632 22.2705 20.5344 20.8C22.2045 19.4133 24.7273 18.2992 28 18.2992V12.2992ZM12.2 24.5075C12.2 26.166 12.889 27.7761 14.479 28.7835C15.8011 29.6211 17.3999 29.8059 18.803 29.8059V23.8059C18.3277 23.8059 18.0074 23.77 17.8065 23.7292C17.6027 23.6877 17.5975 23.6564 17.6902 23.7151C17.8086 23.7902 17.9769 23.9439 18.095 24.177C18.2045 24.3929 18.2 24.537 18.2 24.5075H12.2ZM18.1 21.6379C18.1209 21.6379 18.2605 21.6378 18.4629 21.6797C18.6679 21.7221 19.0398 21.8284 19.4349 22.1116C19.8653 22.4201 20.184 22.8394 20.3699 23.2975C20.5384 23.7127 20.559 24.0621 20.559 24.2358H14.559C14.559 24.9196 14.7691 26.1492 15.9391 26.988C16.8403 27.6341 17.8063 27.6379 18.1 27.6379V21.6379ZM20.559 24.2358C20.559 24.375 20.5305 24.1991 20.8073 23.7447C21.0593 23.3311 21.4867 22.8214 22.1177 22.3234C23.361 21.3421 25.3172 20.469 28 20.469V14.469C23.9618 14.469 20.6975 15.8007 18.4006 17.6135C17.2614 18.5125 16.3388 19.5471 15.6832 20.6232C15.0525 21.6586 14.559 22.9178 14.559 24.2358H20.559ZM28 20.469C30.6743 20.469 32.6268 21.3412 33.869 22.3224C34.4994 22.8204 34.9267 23.3302 35.1787 23.744C35.4556 24.1986 35.427 24.3744 35.427 24.2348H41.427C41.427 22.917 40.9334 21.658 40.3032 20.6232C39.6481 19.5475 38.7262 18.5131 37.5882 17.6142C35.2937 15.8017 32.0327 14.469 28 14.469V20.469ZM35.427 24.2348C35.427 23.9399 35.5099 22.8914 36.5134 22.1436C36.9217 21.8394 37.3119 21.7256 37.5267 21.6805C37.737 21.6364 37.8821 21.637 37.9 21.637V27.637C38.1773 27.637 39.1794 27.6397 40.0986 26.9547C41.2706 26.0813 41.427 24.8318 41.427 24.2348H35.427ZM37.8999 21.637L18.0999 21.6379L18.1001 27.6379L37.9002 27.637L37.8999 21.637Z" fill="white" mask="url(#path-1-inside-1_2_732)"/>
</svg>
