<svg width="56" height="28" viewBox="0 0 56 28" fill="none" xmlns="http://www.w3.org/2000/svg">
<path d="M28 13.576C31.485 13.576 34.326 10.471 34.326 6.693C34.326 2.958 31.5 0 28 0C24.53 0 21.674 3.002 21.674 6.722C21.688 10.486 24.529 13.576 28 13.576ZM11.13 13.897C14.146 13.897 16.621 11.187 16.621 7.863C16.621 4.613 14.176 1.991 11.13 1.991C8.113 1.991 5.623 4.656 5.638 7.892C5.653 11.202 8.113 13.897 11.13 13.897ZM44.885 13.897C47.887 13.897 50.362 11.202 50.362 7.892C50.377 4.656 47.887 1.991 44.885 1.991C41.825 1.991 39.379 4.612 39.379 7.863C39.379 11.187 41.854 13.897 44.885 13.897ZM28 11.364C25.862 11.364 24.031 9.314 24.031 6.722C24.031 4.174 25.833 2.212 28.001 2.212C30.182 2.212 31.969 4.145 31.969 6.692C31.969 9.285 30.167 11.364 28 11.364ZM11.13 11.716C9.343 11.716 7.82 10.002 7.82 7.893C7.82 5.829 9.328 4.173 11.13 4.173C12.975 4.173 14.454 5.799 14.454 7.864C14.454 10.002 12.931 11.716 11.13 11.716ZM44.885 11.716C43.069 11.716 41.546 10.002 41.546 7.864C41.546 5.799 43.025 4.174 44.885 4.174C46.686 4.174 48.18 5.829 48.18 7.894C48.18 10.002 46.671 11.716 44.885 11.716ZM2.987 27.326H14.483C13.78 26.931 13.238 26.052 13.341 25.159H2.621C2.328 25.159 2.182 25.042 2.182 24.764C2.182 21.132 6.326 17.734 11.115 17.734C12.96 17.734 14.615 18.174 16.035 19.008C16.5061 18.411 17.064 17.8879 17.69 17.456C15.801 16.211 13.531 15.567 11.115 15.567C4.979 15.567 0 20.019 0 24.896C0 26.521 0.996 27.326 2.987 27.326ZM53.027 27.326C55.004 27.326 56 26.521 56 24.896C56 20.019 51.02 15.567 44.885 15.567C42.469 15.567 40.213 16.211 38.31 17.457C38.969 17.91 39.51 18.423 39.98 19.008C41.385 18.174 43.054 17.734 44.885 17.734C49.674 17.734 53.818 21.132 53.818 24.764C53.818 25.042 53.686 25.159 53.393 25.159H42.673C42.761 26.052 42.234 26.931 41.531 27.326H53.027ZM18.803 27.326H37.197C39.627 27.326 40.785 26.594 40.785 24.983C40.785 21.146 35.937 15.596 28 15.596C20.048 15.596 15.2 21.146 15.2 24.983C15.2 26.594 16.358 27.326 18.803 27.326ZM18.1 25.116C17.72 25.116 17.559 25.013 17.559 24.706C17.559 22.303 21.279 17.808 28 17.808C34.707 17.808 38.427 22.303 38.427 24.705C38.427 25.013 38.28 25.115 37.9 25.115L18.1 25.116Z" fill="#7990A3"/>
</svg>
