<svg width="40" height="40" viewBox="0 0 40 40" fill="none" xmlns="http://www.w3.org/2000/svg">
<rect width="40" height="40" rx="10" fill="#E9EEF4"/>
<path d="M20 12C15 12 10.73 15.11 9 19.5C10.73 23.89 15 27 20 27C25 27 29.27 23.89 31 19.5C29.27 15.11 25 12 20 12ZM20 24.5C17.24 24.5 15 22.26 15 19.5C15 16.74 17.24 14.5 20 14.5C22.76 14.5 25 16.74 25 19.5C25 22.26 22.76 24.5 20 24.5ZM20 16.5C18.34 16.5 17 17.84 17 19.5C17 21.16 18.34 22.5 20 22.5C21.66 22.5 23 21.16 23 19.5C23 17.84 21.66 16.5 20 16.5Z" fill="#35447D"/>
</svg>
