<svg width="50" height="30" viewBox="0 0 50 30" fill="none" xmlns="http://www.w3.org/2000/svg">
<path d="M0 14.7145C2.34998 10.286 5.92869 6.56788 10.3406 3.9711C14.7525 1.37433 19.8259 0 25 0C30.1741 0 35.2475 1.37433 39.6594 3.9711C44.0713 6.56788 47.65 10.286 50 14.7145C47.65 19.143 44.0713 22.8611 39.6594 25.4579C35.2475 28.0547 30.1741 29.429 25 29.429C19.8259 29.429 14.7525 28.0547 10.3406 25.4579C5.92869 22.8611 2.34998 19.143 0 14.7145ZM25 24.5176C27.7063 24.5176 30.3017 23.4848 32.2154 21.6464C34.129 19.8079 35.2041 17.3144 35.2041 14.7145C35.2041 12.1145 34.129 9.62108 32.2154 7.78264C30.3017 5.9442 27.7063 4.91137 25 4.91137C22.2937 4.91137 19.6983 5.9442 17.7846 7.78264C15.871 9.62108 14.7959 12.1145 14.7959 14.7145C14.7959 17.3144 15.871 19.8079 17.7846 21.6464C19.6983 23.4848 22.2937 24.5176 25 24.5176ZM25 19.6161C23.6469 19.6161 22.3491 19.0996 21.3923 18.1804C20.4355 17.2612 19.898 16.0145 19.898 14.7145C19.898 13.4145 20.4355 12.1678 21.3923 11.2486C22.3491 10.3293 23.6469 9.81293 25 9.81293C26.3531 9.81293 27.6509 10.3293 28.6077 11.2486C29.5645 12.1678 30.102 13.4145 30.102 14.7145C30.102 16.0145 29.5645 17.2612 28.6077 18.1804C27.6509 19.0996 26.3531 19.6161 25 19.6161Z" fill="white"/>
</svg>
